<svg id="Api-Key--Streamline-Carbon" xmlns="http://www.w3.org/2000/svg" viewBox="0 0 16 16" height="16" width="16">
  <desc>
    Api Key Streamline Icon: https://streamlinehq.com
  </desc>
  <defs></defs>
  <path d="M14 13c-0.089 0 -0.1736 0.0154 -0.25575 0.0371l-0.5277 -0.5276C13.39235 12.21215 13.5 11.8696 13.5 11.5s-0.10765 -0.71215 -0.28345 -1.0095l0.5277 -0.5276c0.08215 0.02175 0.16675 0.0371 0.25575 0.0371 0.55225 0 1 -0.44775 1 -1s-0.44775 -1 -1 -1 -1 0.44775 -1 1c0 0.08885 0.0154 0.1736 0.0371 0.25585l-0.5276 0.5276C12.212 9.60765 11.86975 9.5 11.5 9.5s-0.71205 0.10765 -1.0095 0.28345l-0.5276 -0.5276c0.02175 -0.0823 0.0371 -0.167 0.0371 -0.25585 0 -0.55225 -0.44775 -1 -1 -1s-1 0.44775 -1 1 0.44775 1 1 1c0.089 0 0.1736 -0.0154 0.25575 -0.0371l0.5277 0.5276C9.60765 10.78785 9.5 11.1304 9.5 11.5s0.10765 0.71215 0.28345 1.0095l-0.5277 0.5276C9.1736 13.01535 9.089 13 9 13c-0.55225 0 -1 0.44775 -1 1s0.44775 1 1 1 1 -0.44775 1 -1c0 -0.08885 -0.0154 -0.1736 -0.0371 -0.25585l0.5276 -0.5276C10.788 13.39235 11.13025 13.5 11.5 13.5s0.71205 -0.10765 1.0095 -0.28345l0.5276 0.5276c-0.02175 0.0823 -0.0371 0.167 -0.0371 0.25585 0 0.55225 0.44775 1 1 1s1 -0.44775 1 -1 -0.44775 -1 -1 -1Zm-3.5 -1.5c0 -0.55125 0.4486 -1 1 -1s1 0.44875 1 1 -0.4486 1 -1 1 -1 -0.44875 -1 -1Z" stroke-width="0.5" fill="currentColor"></path>
  <path d="M10 5a1 1 0 1 0 2 0 1 1 0 1 0 -2 0" stroke-width="0.5" fill="currentColor"></path>
  <path d="M10.5 1c-2.4813 0 -4.5 2.01855 -4.5 4.5 0 0.3894 0.04945 0.77345 0.1472 1.1455L1 11.79295V15h3.20715l3.5 -3.5 -1.35365 -1.3535 -0.70705 0.70705 0.64635 0.6465 -0.7948 0.7949 -0.64345 -0.64745 -0.70925 0.7051 0.64565 0.6494 -0.99815 0.99805H1.99995v-1.79295l4.8561 -4.85595 0.42775 -0.43385 -0.0991 -0.29225c-0.12255 -0.36085 -0.1847 -0.73925 -0.1847 -1.125 0 -1.92995 1.57005 -3.5 3.5 -3.5s3.5 1.57005 3.5 3.5h1c0 -2.48145 -2.0187 -4.5 -4.5 -4.5Z" stroke-width="0.5" fill="currentColor"></path>
  <path id="_Transparent_Rectangle_" d="M0 0h16v16H0Z" stroke-width="0.5" fill="none"></path>
</svg>