<?xml version="1.0" encoding="UTF-8"?>
<svg version="1.1" xmlns="http://www.w3.org/2000/svg" width="289" height="170">
<path d="M0 0 C0.99 0 1.98 0 3 0 C7.34099149 8.90408022 9.29029214 16.34847639 6 26 C4.22390149 29.18472836 2.2199275 32.10990571 0 35 C5.18687107 31.68616571 7.05319245 27.63600787 9 22 C9.77222323 18.6414775 9.77222323 18.6414775 10 16 C10.66 16 11.32 16 12 16 C14.50173375 21.0034675 13.16162835 27.80668446 11.703125 33.015625 C10.0501652 37.68064488 7.73845928 41.89231107 5 46 C4.34 46 3.68 46 3 46 C2.34 47.32 1.68 48.64 1 50 C0.34 50 -0.32 50 -1 50 C-1 50.66 -1 51.32 -1 52 C-8.67532588 56.58509648 -15.34394253 59.75926754 -24.22265625 61.39453125 C-26.8211222 61.96100414 -28.65439074 62.80543198 -31 64 C-33.66353755 64.51520982 -36.29499131 64.72949913 -39 65 C-27.12960863 65.59963058 -27.12960863 65.59963058 -15.796875 62.55859375 C-13.54079139 61.85724602 -12.20782478 62.26243022 -10 63 C-16.26713769 69.26713769 -27.85996702 69.48538281 -36.19921875 69.7265625 C-39.13752933 69.71416043 -39.13752933 69.71416043 -41 72 C-44.01305957 71.61121812 -45.39685311 70.73543126 -48 69 C-50.19717569 68.41089553 -50.19717569 68.41089553 -52.6484375 68.03515625 C-54.0238269 67.79696167 -54.0238269 67.79696167 -55.42700195 67.55395508 C-56.39984131 67.3917749 -57.37268066 67.22959473 -58.375 67.0625 C-64.73214782 65.96213513 -71.04171783 64.83359342 -77.3125 63.3125 C-90.82003612 60.11791562 -106.54353562 59.07216716 -120 63 C-121.18142578 63.34417969 -121.18142578 63.34417969 -122.38671875 63.6953125 C-126.8274658 65.08992728 -130.85154979 66.87518404 -135 69 C-135.66 69 -136.32 69 -137 69 C-137 69.66 -137 70.32 -137 71 C-138.53125 72.5078125 -138.53125 72.5078125 -140.5 74.125 C-141.1496875 74.66382812 -141.799375 75.20265625 -142.46875 75.7578125 C-142.9740625 76.16773437 -143.479375 76.57765625 -144 77 C-142.35 77.66 -140.7 78.32 -139 79 C-139 80.65 -139 82.3 -139 84 C-141.475 84.495 -141.475 84.495 -144 85 C-144 85.66 -144 86.32 -144 87 C-144.66 87 -145.32 87 -146 87 C-146.12375 87.53625 -146.2475 88.0725 -146.375 88.625 C-147 91 -147 91 -148.015625 93.5703125 C-149.25058149 97.87305772 -149.3815981 101.79540192 -149.375 106.25 C-149.37701416 107.09103271 -149.37902832 107.93206543 -149.38110352 108.79858398 C-149.28734498 114.53782662 -148.46695389 119.13233413 -145.77734375 124.28515625 C-145.52082031 124.85105469 -145.26429688 125.41695313 -145 126 C-145.33 126.66 -145.66 127.32 -146 128 C-146.99 128.33 -147.98 128.66 -149 129 C-148.3503125 130.04800781 -148.3503125 130.04800781 -147.6875 131.1171875 C-147.130625 132.02726563 -146.57375 132.93734375 -146 133.875 C-145.443125 134.77992188 -144.88625 135.68484375 -144.3125 136.6171875 C-143 139 -143 139 -143 141 C-146.81936528 139.44396229 -149.26044438 137.04395069 -152 134 C-152 133.34 -152 132.68 -152 132 C-152.66 132 -153.32 132 -154 132 C-155.34130761 129.73354942 -156.67316234 127.46239903 -158 125.1875 C-158.3815625 124.54490234 -158.763125 123.90230469 -159.15625 123.24023438 C-162 118.33984375 -162 118.33984375 -162 115 C-164.475 115.495 -164.475 115.495 -167 116 C-167.66666667 114 -168.33333333 112 -169 110 C-169.33902344 109.08347656 -169.67804688 108.16695313 -170.02734375 107.22265625 C-172.33964195 99.56142726 -172.6787986 90.83439348 -171 83 C-170.34 83 -169.68 83 -169 83 C-168.92652344 84.52367188 -168.92652344 84.52367188 -168.8515625 86.078125 C-168.4069141 94.50693339 -167.61946146 102.69829465 -166 111 C-165.34 111 -164.68 111 -164 111 C-164.309375 110.29875 -164.61875 109.5975 -164.9375 108.875 C-169.15567536 97.46111374 -167.9133143 82.9357654 -162.9375 71.9375 C-157.70993489 62.32306007 -150.53390729 56.09392881 -141 51 C-140.01 50.34 -139.02 49.68 -138 49 C-138 47.68 -138 46.36 -138 45 C-149.84753554 48.56533312 -158.01516236 53.97079921 -164 65 C-164.33 65.99 -164.66 66.98 -165 68 C-165.99 68 -166.98 68 -168 68 C-165.97196905 54.91212583 -155.28349511 43.63575135 -145 36 C-142.6167931 34.85972716 -140.21566203 33.89613936 -137.75390625 32.94140625 C-135.68663612 32.0770939 -135.68663612 32.0770939 -134.9375 29.25 C-134.958125 28.5075 -134.97875 27.765 -135 27 C-134.41984131 27.19440674 -133.83968262 27.38881348 -133.24194336 27.58911133 C-130.58627912 28.07582405 -129.57452406 27.63943308 -127.12890625 26.57421875 C-120.82353173 24.30356021 -114.55998783 24.67519164 -107.9375 24.8125 C-106.69033203 24.82603516 -105.44316406 24.83957031 -104.15820312 24.85351562 C-101.10501033 24.8886098 -98.0527401 24.93777733 -95 25 C-94.505 26.485 -94.505 26.485 -94 28 C-91.38884034 28.78582293 -88.9187316 29.36874564 -86.25 29.875 C-84.58796482 30.20807185 -82.92652526 30.54412662 -81.265625 30.8828125 C-80.39615234 31.05973633 -79.52667969 31.23666016 -78.63085938 31.41894531 C-76.07148665 31.98421138 -73.56763392 32.65054034 -71.046875 33.3671875 C-56.90518617 37.30370439 -40.84091269 39.52790708 -26.28515625 36.42041016 C-24 36 -24 36 -22 37 C-19.15888532 35.57913637 -19.15888532 35.57913637 -16.0625 33.625 C-10.26354319 30.08784773 -10.26354319 30.08784773 -7 29 C-7 28.34 -7 27.68 -7 27 C-6.34 27 -5.68 27 -5 27 C-5 26.34 -5 25.68 -5 25 C-4.34 25 -3.68 25 -3 25 C0.33530434 16.56247415 0.32177688 8.93824669 0 0 Z M-129 30 C-129 30.33 -129 30.66 -129 31 C-125.75017 31.08728882 -122.5006425 31.14048658 -119.25 31.1875 C-118.32960938 31.21263672 -117.40921875 31.23777344 -116.4609375 31.26367188 C-115.57148437 31.27333984 -114.68203125 31.28300781 -113.765625 31.29296875 C-112.94868164 31.3086792 -112.13173828 31.32438965 -111.29003906 31.34057617 C-108.48759373 30.92379459 -107.11152979 29.83804852 -105 28 C-113.29683005 27.80323723 -120.95075394 27.74056251 -129 30 Z M-131 30 C-131.33 30.66 -131.66 31.32 -132 32 C-131.01 31.67 -130.02 31.34 -129 31 C-129.66 30.67 -130.32 30.34 -131 30 Z M-101 41 C-101.37125 41.474375 -101.7425 41.94875 -102.125 42.4375 C-104 44 -104 44 -107.5625 44.4375 C-109.2640625 44.7159375 -109.2640625 44.7159375 -111 45 C-112.24901333 46.97113737 -112.24901333 46.97113737 -113 49 C-108.5866445 50.03552346 -104.1688874 51.05086639 -99.75 52.0625 C-98.49574219 52.35705078 -97.24148437 52.65160156 -95.94921875 52.95507812 C-94.14130859 53.3659668 -94.14130859 53.3659668 -92.296875 53.78515625 C-91.18666992 54.04176025 -90.07646484 54.29836426 -88.93261719 54.56274414 C-86.16766182 54.97500147 -84.59643546 54.93084973 -82 54 C-83.58430231 52.25726746 -84.88012678 51.05993661 -87 50 C-89 49 -89 49 -90.5 47.4375 C-91.90124982 45.84721577 -91.90124982 45.84721577 -93.9375 45.5625 C-96.75786154 44.79331049 -98.03600565 43.09944224 -100 41 C-100.33 41 -100.66 41 -101 41 Z M-49 64 C-47.515 64.99 -47.515 64.99 -46 66 C-45.67 65.34 -45.34 64.68 -45 64 C-46.32 64 -47.64 64 -49 64 Z M-148 80 C-155.25822776 91.26276721 -156.63868848 103.72351636 -154.3203125 116.84765625 C-153.61741546 119.92366759 -152.85995818 122.96455237 -152 126 C-151.34 125.34 -150.68 124.68 -150 124 C-150.20903297 121.00018656 -150.20903297 121.00018656 -150.875 117.5625 C-152.70394848 105.94748951 -153.28434359 95.28347132 -147 85 C-146.74803871 82.29046449 -146.74803871 82.29046449 -147 80 C-147.33 80 -147.66 80 -148 80 Z " fill="#7AD1FA" transform="translate(180,20)"/>
<path d="M0 0 C1.8876709 0.00362549 1.8876709 0.00362549 3.81347656 0.00732422 C20.14510785 0.32226493 35.08571386 4.81578099 50.26855469 10.5065918 C57.37436315 13.11654929 64.73289357 14.69137699 72.25 15.5625 C72.58 15.2325 72.91 14.9025 73.25 14.5625 C75.75 14.4375 75.75 14.4375 78.25 14.5625 C78.58 14.8925 78.91 15.2225 79.25 15.5625 C81.7655973 15.71822745 84.23265766 15.80093444 86.75 15.8125 C87.47670898 15.81644775 88.20341797 15.82039551 88.95214844 15.82446289 C93.86297529 15.77132253 97.92778665 15.15749601 102.453125 13.12109375 C104.70920861 12.41974602 106.04217522 12.82493022 108.25 13.5625 C101.98286231 19.82963769 90.39003298 20.04788281 82.05078125 20.2890625 C79.11247067 20.27666043 79.11247067 20.27666043 77.25 22.5625 C74.23694043 22.17371812 72.85314689 21.29793126 70.25 19.5625 C68.05282431 18.97339553 68.05282431 18.97339553 65.6015625 18.59765625 C64.68463623 18.43885986 63.76770996 18.28006348 62.82299805 18.11645508 C61.85015869 17.9542749 60.87731934 17.79209473 59.875 17.625 C53.51785218 16.52463513 47.20828217 15.39609342 40.9375 13.875 C27.42996388 10.68041562 11.70646438 9.63466716 -1.75 13.5625 C-2.93142578 13.90667969 -2.93142578 13.90667969 -4.13671875 14.2578125 C-8.5774658 15.65242728 -12.60154979 17.43768404 -16.75 19.5625 C-17.41 19.5625 -18.07 19.5625 -18.75 19.5625 C-18.75 20.2225 -18.75 20.8825 -18.75 21.5625 C-20.28125 23.0703125 -20.28125 23.0703125 -22.25 24.6875 C-23.22453125 25.49574219 -23.22453125 25.49574219 -24.21875 26.3203125 C-24.97671875 26.93519531 -24.97671875 26.93519531 -25.75 27.5625 C-24.1 28.2225 -22.45 28.8825 -20.75 29.5625 C-20.75 31.2125 -20.75 32.8625 -20.75 34.5625 C-23.225 35.0575 -23.225 35.0575 -25.75 35.5625 C-25.75 36.2225 -25.75 36.8825 -25.75 37.5625 C-26.41 37.5625 -27.07 37.5625 -27.75 37.5625 C-27.87375 38.09875 -27.9975 38.635 -28.125 39.1875 C-28.75 41.5625 -28.75 41.5625 -29.765625 44.1328125 C-31.00058149 48.43555772 -31.1315981 52.35790192 -31.125 56.8125 C-31.12701416 57.65353271 -31.12902832 58.49456543 -31.13110352 59.36108398 C-31.03734498 65.10032662 -30.21695389 69.69483413 -27.52734375 74.84765625 C-27.27082031 75.41355469 -27.01429687 75.97945313 -26.75 76.5625 C-27.08 77.2225 -27.41 77.8825 -27.75 78.5625 C-29.235 79.0575 -29.235 79.0575 -30.75 79.5625 C-30.1003125 80.61050781 -30.1003125 80.61050781 -29.4375 81.6796875 C-28.880625 82.58976562 -28.32375 83.49984375 -27.75 84.4375 C-27.193125 85.34242188 -26.63625 86.24734375 -26.0625 87.1796875 C-24.75 89.5625 -24.75 89.5625 -24.75 91.5625 C-28.56936528 90.00646229 -31.01044438 87.60645069 -33.75 84.5625 C-33.75 83.9025 -33.75 83.2425 -33.75 82.5625 C-34.41 82.5625 -35.07 82.5625 -35.75 82.5625 C-37.09130761 80.29604942 -38.42316234 78.02489903 -39.75 75.75 C-40.1315625 75.10740234 -40.513125 74.46480469 -40.90625 73.80273438 C-43.75 68.90234375 -43.75 68.90234375 -43.75 65.5625 C-46.225 66.0575 -46.225 66.0575 -48.75 66.5625 C-49.41666667 64.5625 -50.08333333 62.5625 -50.75 60.5625 C-51.08902344 59.64597656 -51.42804687 58.72945312 -51.77734375 57.78515625 C-54.08964195 50.12392726 -54.4287986 41.39689348 -52.75 33.5625 C-52.09 33.5625 -51.43 33.5625 -50.75 33.5625 C-50.67652344 35.08617188 -50.67652344 35.08617188 -50.6015625 36.640625 C-50.1569141 45.06943339 -49.36946146 53.26079465 -47.75 61.5625 C-47.09 61.5625 -46.43 61.5625 -45.75 61.5625 C-46.059375 60.86125 -46.36875 60.16 -46.6875 59.4375 C-50.90567536 48.02361374 -49.6633143 33.4982654 -44.6875 22.5 C-39.85777928 13.56715372 -33.05785773 5.86746693 -23.24829102 2.7734375 C-15.43366481 0.66701907 -8.07964787 -0.0164265 0 0 Z M-29.75 30.5625 C-37.00822776 41.82526721 -38.38868848 54.28601636 -36.0703125 67.41015625 C-35.36741546 70.48616759 -34.60995818 73.52705237 -33.75 76.5625 C-33.09 75.9025 -32.43 75.2425 -31.75 74.5625 C-31.95903297 71.56268656 -31.95903297 71.56268656 -32.625 68.125 C-34.45394848 56.50998951 -35.03434359 45.84597132 -28.75 35.5625 C-28.49803871 32.85296449 -28.49803871 32.85296449 -28.75 30.5625 C-29.08 30.5625 -29.41 30.5625 -29.75 30.5625 Z " fill="#A8D5F8" transform="translate(61.75,69.4375)"/>
<path d="M0 0 C0.66 0 1.32 0 2 0 C4.50173375 5.0034675 3.16162835 11.80668446 1.703125 17.015625 C0.0501652 21.68064488 -2.26154072 25.89231107 -5 30 C-5.66 30 -6.32 30 -7 30 C-7.66 31.32 -8.32 32.64 -9 34 C-9.66 34 -10.32 34 -11 34 C-11 34.66 -11 35.32 -11 36 C-12.99347423 37.13652342 -14.99515127 38.25866377 -17 39.375 C-18.670625 40.31472656 -18.670625 40.31472656 -20.375 41.2734375 C-41.16183615 51.80585052 -68.74818795 43.01963456 -89.43359375 36.62109375 C-90.29009521 36.3573999 -91.14659668 36.09370605 -92.02905273 35.82202148 C-94 35 -94 35 -95 33 C-91.70899625 32.81840073 -88.41732097 32.65586656 -85.125 32.5 C-83.5481543 32.42519409 -83.5481543 32.42519409 -81.93945312 32.34887695 C-75.41750748 32.07681704 -68.92349486 31.98360172 -62.3984375 32.07421875 C-61.66263458 32.08248688 -60.92683167 32.090755 -60.16873169 32.09927368 C-56.53854176 32.14104785 -52.91085409 32.20327281 -49.28173828 32.30078125 C-36.02185956 32.54178122 -21.53969928 30.78956471 -11 22 C-4.84022495 15.58259177 -1.08558819 8.90182318 0 0 Z " fill="#DAE2FC" transform="translate(190,36)"/>
<path d="M0 0 C2.43974382 0.49021566 4.85755987 0.92111139 7.3125 1.3125 C12.8953825 2.27587833 18.13018349 3.577181 23.5 5.4375 C38.58000798 10.62665811 50.8653092 12.56144788 66.78027344 11.94995117 C69.01173343 12.00026456 70.84662357 12.45456327 73 13 C80.55735556 11.99644872 87.2753171 9.76335161 93.87890625 5.98828125 C96 5 96 5 100 5 C99.64393265 7.62246426 99.26554981 8.75913849 97.27734375 10.5625 C85.26556149 17.94202566 72.35189527 19.61377183 58.57122803 19.24462891 C54.89316321 19.14615159 51.21422675 19.11562746 47.53515625 19.07421875 C46.8086084 19.0640976 46.08206055 19.05397644 45.33349609 19.04354858 C35.54063744 18.92387097 25.77422054 19.44261064 16 20 C20.05755789 21.30754133 24.12181709 22.59296796 28.1875 23.875 C29.88422852 24.42220703 29.88422852 24.42220703 31.61523438 24.98046875 C42.56220782 28.41114419 53.36578196 30.15256452 64.8125 30.625 C65.61236328 30.66367188 66.41222656 30.70234375 67.23632812 30.7421875 C69.1572703 30.83420868 71.07860162 30.91805484 73 31 C72.505 31.99 72.505 31.99 72 33 C55.67751262 38.44082913 36.01701104 34.1076185 21 27 C18.63671875 25.46875 18.63671875 25.46875 17 24 C17 23.34 17 22.68 17 22 C16.030625 21.731875 15.06125 21.46375 14.0625 21.1875 C13.051875 20.795625 12.04125 20.40375 11 20 C10.67 19.01 10.34 18.02 10 17 C9.34 16.67 8.68 16.34 8 16 C17.69527822 15.80780285 27.32867432 16.40418676 37 17 C37 16.34 37 15.68 37 15 C36.16726562 15.04640625 35.33453125 15.0928125 34.4765625 15.140625 C30.50640207 14.98003424 27.10722388 13.9982852 23.375 12.75 C22.66915771 12.52256104 21.96331543 12.29512207 21.23608398 12.06079102 C18.10696721 11.04754307 14.99355231 9.99775908 11.88671875 8.91796875 C3.39261415 5.96911639 -5.23417354 3.95257746 -14 2 C-14 1.67 -14 1.34 -14 1 C-12.42298018 0.44021816 -10.83800758 -0.09719401 -9.25 -0.625 C-7.92742187 -1.07746094 -7.92742187 -1.07746094 -6.578125 -1.5390625 C-3.4449162 -2.09924226 -2.7317995 -1.49873037 0 0 Z " fill="#6C62C4" transform="translate(80,50)"/>
<path d="M0 0 C1.24523437 -0.01836914 1.24523437 -0.01836914 2.515625 -0.03710938 C8.8355862 -0.05196822 14.77940217 0.40753125 20.375 3.625 C22.89928685 7.93732336 22.5478112 12.33364775 21.875 17.1875 C20.62055923 21.09881812 18.80273536 23.58079501 15.3125 25.86328125 C10.89427179 27.56530325 7.18093196 27.52057922 2.5 27.375 C1.66855469 27.36146484 0.83710938 27.34792969 -0.01953125 27.33398438 C-2.05497066 27.29889059 -4.09007291 27.24509228 -6.125 27.1875 C-6.455 30.8175 -6.785 34.4475 -7.125 38.1875 C-10.96387763 39.67070272 -13.18704091 40.41169163 -17.125 39.1875 C-16.1714502 29.61436192 -14.87713468 20.14951488 -13.125 10.6875 C-12.9590332 9.76171143 -12.79306641 8.83592285 -12.62207031 7.88208008 C-12.37602051 6.59466919 -12.37602051 6.59466919 -12.125 5.28125 C-11.9084375 4.13172852 -11.9084375 4.13172852 -11.6875 2.95898438 C-11.4090625 2.08209961 -11.4090625 2.08209961 -11.125 1.1875 C-7.67579966 -0.53710017 -3.80018663 0.00287023 0 0 Z M-2.125 9.1875 C-2.785 12.4875 -3.445 15.7875 -4.125 19.1875 C-2.02146505 19.2685206 0.08295952 19.32669907 2.1875 19.375 C3.35925781 19.40980469 4.53101563 19.44460937 5.73828125 19.48046875 C8.82713096 19.45042236 8.82713096 19.45042236 10.77734375 17.87109375 C12.44114474 15.31914277 12.13264422 13.15040851 11.875 10.1875 C10.76373341 8.84848208 10.76373341 8.84848208 7.93359375 9.08984375 C6.73863281 9.10144531 5.54367188 9.11304687 4.3125 9.125 C3.11496094 9.13402344 1.91742188 9.14304687 0.68359375 9.15234375 C-0.70666016 9.16974609 -0.70666016 9.16974609 -2.125 9.1875 Z " fill="#F3EFF9" transform="translate(236.125,92.8125)"/>
<path d="M0 0 C2.00720923 0.28674418 4.0085944 0.61866701 6 1 C6 2.65 6 4.3 6 6 C4.35 6.33 2.7 6.66 1 7 C1 7.66 1 8.32 1 9 C0.34 9 -0.32 9 -1 9 C-1.12375 9.53625 -1.2475 10.0725 -1.375 10.625 C-2 13 -2 13 -3.015625 15.5703125 C-4.25058149 19.87305772 -4.3815981 23.79540192 -4.375 28.25 C-4.37701416 29.09103271 -4.37902832 29.93206543 -4.38110352 30.79858398 C-4.28734498 36.53782662 -3.46695389 41.13233413 -0.77734375 46.28515625 C-0.52082031 46.85105469 -0.26429687 47.41695312 0 48 C-0.33 48.66 -0.66 49.32 -1 50 C-2.485 50.495 -2.485 50.495 -4 51 C-3.566875 51.69867188 -3.13375 52.39734375 -2.6875 53.1171875 C-2.130625 54.02726562 -1.57375 54.93734375 -1 55.875 C-0.443125 56.77992188 0.11375 57.68484375 0.6875 58.6171875 C2 61 2 61 2 63 C-1.81936528 61.44396229 -4.26044438 59.04395069 -7 56 C-7 55.34 -7 54.68 -7 54 C-7.66 54 -8.32 54 -9 54 C-10.34130761 51.73354942 -11.67316234 49.46239903 -13 47.1875 C-13.3815625 46.54490234 -13.763125 45.90230469 -14.15625 45.24023438 C-17 40.33984375 -17 40.33984375 -17 37 C-19.475 37.495 -19.475 37.495 -22 38 C-22.66666667 36 -23.33333333 34 -24 32 C-24.33902344 31.08347656 -24.67804687 30.16695312 -25.02734375 29.22265625 C-27.33964195 21.56142726 -27.6787986 12.83439348 -26 5 C-25.34 5 -24.68 5 -24 5 C-23.95101563 6.01578125 -23.90203125 7.0315625 -23.8515625 8.078125 C-23.4069141 16.50693339 -22.61946146 24.69829465 -21 33 C-20.34 33 -19.68 33 -19 33 C-19.4640625 31.948125 -19.4640625 31.948125 -19.9375 30.875 C-23.30702151 21.7574712 -22.45573049 11.46224818 -21 2 C-18.8125 1.1875 -18.8125 1.1875 -16 1 C-14.31288577 2.6459651 -12.6454378 4.31237149 -11 6 C-8.74992715 6.10546369 -8.74992715 6.10546369 -7 5 C-6.67 4.34 -6.34 3.68 -6 3 C-6.11633358 4.52152079 -6.2435887 6.04220723 -6.375 7.5625 C-6.44460937 8.40941406 -6.51421875 9.25632812 -6.5859375 10.12890625 C-7 13 -7 13 -8.0234375 16.375 C-10.71132519 26.35243911 -9.20422735 36.38731796 -6 46 C-6.144375 45.11699219 -6.28875 44.23398438 -6.4375 43.32421875 C-8.36883878 30.83757705 -10.20219496 18.1033839 -3 7 C-2.31039038 5.00779443 -1.63920943 3.00894394 -1 1 C-0.67 0.67 -0.34 0.34 0 0 Z " fill="#E0DEF8" transform="translate(35,98)"/>
<path d="M0 0 C1.22589844 0.15275391 1.22589844 0.15275391 2.4765625 0.30859375 C3.10304687 0.39238281 3.72953125 0.47617188 4.375 0.5625 C4.54104736 1.26745605 4.70709473 1.97241211 4.87817383 2.69873047 C5.64484819 5.94572804 6.41614552 9.19161119 7.1875 12.4375 C7.44853516 13.54609375 7.70957031 14.6546875 7.97851562 15.796875 C9.40490345 21.78418191 10.94283795 27.68397963 12.83081055 33.54345703 C13.375 35.5625 13.375 35.5625 13.375 38.5625 C10.075 38.5625 6.775 38.5625 3.375 38.5625 C2.715 36.5825 2.055 34.6025 1.375 32.5625 C-5.555 32.0675 -5.555 32.0675 -12.625 31.5625 C-12.625 29.89583333 -12.625 28.22916667 -12.625 26.5625 C-13.11871094 27.34496094 -13.61242187 28.12742187 -14.12109375 28.93359375 C-14.76175781 29.94550781 -15.40242187 30.95742187 -16.0625 32 C-16.70058594 33.00933594 -17.33867187 34.01867187 -17.99609375 35.05859375 C-19.625 37.5625 -19.625 37.5625 -20.625 38.5625 C-22.31108966 38.63455511 -24.00000659 38.64636068 -25.6875 38.625 C-26.60660156 38.61597656 -27.52570313 38.60695312 -28.47265625 38.59765625 C-29.18292969 38.58605469 -29.89320313 38.57445312 -30.625 38.5625 C-30.625 37.5725 -30.625 36.5825 -30.625 35.5625 C-29.965 35.5625 -29.305 35.5625 -28.625 35.5625 C-28.36831543 34.85150146 -28.11163086 34.14050293 -27.84716797 33.40795898 C-26.53142768 30.34464435 -24.93327739 27.79884597 -23.0703125 25.03515625 C-22.37292969 23.99552734 -21.67554688 22.95589844 -20.95703125 21.88476562 C-20.22871094 20.80904297 -19.50039062 19.73332031 -18.75 18.625 C-18.02941406 17.55314453 -17.30882812 16.48128906 -16.56640625 15.37695312 C-15.21842313 13.37235576 -13.86854173 11.36903259 -12.51611328 9.36743164 C-11.15693987 7.35148233 -9.82509741 5.31700602 -8.51123047 3.27124023 C-5.78735858 -0.64040338 -4.48669086 -0.57686025 0 0 Z M-3.625 11.5625 C-4.87885665 13.32260863 -6.07833018 15.12164518 -7.25 16.9375 C-7.90226562 17.93523437 -8.55453125 18.93296875 -9.2265625 19.9609375 C-9.68804687 20.81945312 -10.14953125 21.67796875 -10.625 22.5625 C-10.295 23.2225 -9.965 23.8825 -9.625 24.5625 C-6.985 24.2325 -4.345 23.9025 -1.625 23.5625 C-0.61618706 20.43024164 -0.66906727 18.465792 -1.5625 15.3125 C-1.913125 14.075 -2.26375 12.8375 -2.625 11.5625 C-2.955 11.5625 -3.285 11.5625 -3.625 11.5625 Z " fill="#EDEAF7" transform="translate(203.625,93.4375)"/>
<path d="M0 0 C1.30517578 0.02030273 1.30517578 0.02030273 2.63671875 0.04101562 C4.75808627 0.07598322 6.87912974 0.1297747 9 0.1875 C8.67 2.8275 8.34 5.4675 8 8.1875 C7.04738281 8.23648438 6.09476563 8.28546875 5.11328125 8.3359375 C3.85902344 8.41070312 2.60476562 8.48546875 1.3125 8.5625 C-0.54955078 8.66691406 -0.54955078 8.66691406 -2.44921875 8.7734375 C-6.33829368 9.07018057 -6.33829368 9.07018057 -11 11.1875 C-5.72 11.5175 -0.44 11.8475 5 12.1875 C5 14.8275 5 17.4675 5 20.1875 C-1.27 20.1875 -7.54 20.1875 -14 20.1875 C-13.67 21.1775 -13.34 22.1675 -13 23.1875 C-7.06 23.8475 -1.12 24.5075 5 25.1875 C4.67 27.4975 4.34 29.8075 4 32.1875 C0.4377769 32.30404436 -3.12395342 32.3748639 -6.6875 32.4375 C-7.69490234 32.47101563 -8.70230469 32.50453125 -9.74023438 32.5390625 C-17.1985232 32.63752176 -17.1985232 32.63752176 -21.14453125 30.421875 C-24.15530841 26.79626545 -24.24529159 23.8003447 -24 19.1875 C-21.99048913 7.05431695 -21.99048913 7.05431695 -18 3.1875 C-11.87345114 0.19812035 -6.73967256 -0.20187959 0 0 Z " fill="#EAE7F7" transform="translate(132,99.8125)"/>
<path d="M0 0 C0.81404297 0.00064453 1.62808594 0.00128906 2.46679688 0.00195312 C8.42165179 0.04665179 8.42165179 0.04665179 9.5625 1.1875 C9.6875 4.6875 9.6875 4.6875 9.5625 8.1875 C8.02228682 9.72771318 6.52179837 9.38531545 4.37890625 9.46875 C3.53392578 9.50613281 2.68894531 9.54351562 1.81835938 9.58203125 C0.48514648 9.63423828 0.48514648 9.63423828 -0.875 9.6875 C-2.6238654 9.75628276 -4.37258138 9.82901183 -6.12109375 9.90625 C-6.90025146 9.93654297 -7.67940918 9.96683594 -8.48217773 9.99804688 C-10.51559366 10.07701722 -10.51559366 10.07701722 -12.4375 11.1875 C-12.7675 12.5075 -13.0975 13.8275 -13.4375 15.1875 C-7.1675 15.5175 -0.8975 15.8475 5.5625 16.1875 C5.2325 18.8275 4.9025 21.4675 4.5625 24.1875 C0.27952469 25.24369003 -3.86735646 25.30452092 -8.25 25.25 C-8.94287109 25.24548828 -9.63574219 25.24097656 -10.34960938 25.23632812 C-12.04561068 25.22463156 -13.74156703 25.20669924 -15.4375 25.1875 C-16.4275 29.8075 -17.4175 34.4275 -18.4375 39.1875 C-21.4075 39.1875 -24.3775 39.1875 -27.4375 39.1875 C-27.65783679 32.86383413 -26.86211568 27.18008732 -25.5625 21 C-25.38847656 20.12408203 -25.21445312 19.24816406 -25.03515625 18.34570312 C-24.16803178 14.10963949 -23.25383003 10.13924506 -21.4375 6.1875 C-20.7775 6.1875 -20.1175 6.1875 -19.4375 6.1875 C-19.4375 5.5275 -19.4375 4.8675 -19.4375 4.1875 C-18.7775 4.1875 -18.1175 4.1875 -17.4375 4.1875 C-17.4375 3.5275 -17.4375 2.8675 -17.4375 2.1875 C-11.47483305 0.4594877 -6.19125993 -0.09634229 0 0 Z " fill="#E6E3F6" transform="translate(69.4375,92.8125)"/>
<path d="M0 0 C3.44980157 -0.48230236 6.5736796 -0.7114192 10 0 C12.35937891 2.36456436 13.7027746 4.94127906 15 8 C16.12588014 7.04270084 17.2506715 6.08412105 18.375 5.125 C19.00148437 4.59132813 19.62796875 4.05765625 20.2734375 3.5078125 C21.55836651 2.38567993 22.79371975 1.20628025 24 0 C26.3828125 -0.1953125 26.3828125 -0.1953125 29.125 -0.125 C30.03507812 -0.10695313 30.94515625 -0.08890625 31.8828125 -0.0703125 C32.58148438 -0.04710938 33.28015625 -0.02390625 34 0 C34 3 34 3 32.80664062 4.53393555 C32.26201172 5.062854 31.71738281 5.59177246 31.15625 6.13671875 C30.56972656 6.71357422 29.98320312 7.29042969 29.37890625 7.88476562 C28.75886719 8.47966797 28.13882813 9.07457031 27.5 9.6875 C26.56994141 10.59725586 26.56994141 10.59725586 25.62109375 11.52539062 C24.08735293 13.02373743 22.54451802 14.51276493 21 16 C21.5053125 16.90363281 22.010625 17.80726562 22.53125 18.73828125 C23.1878303 19.92950551 23.84406218 21.12092185 24.5 22.3125 C24.83386719 22.90740234 25.16773438 23.50230469 25.51171875 24.11523438 C27.06825114 26.95828844 28 28.70660988 28 32 C24.7 32 21.4 32 18 32 C17.05598958 30.20963542 16.11197917 28.41927083 15.16796875 26.62890625 C14.00980201 24.67732013 14.00980201 24.67732013 11 24 C11 24.66 11 25.32 11 26 C10.34 26 9.68 26 9 26 C8.71125 26.61875 8.4225 27.2375 8.125 27.875 C7 30 7 30 5 32 C2.3984375 32.1953125 2.3984375 32.1953125 -0.625 32.125 C-1.62789062 32.10695312 -2.63078125 32.08890625 -3.6640625 32.0703125 C-4.82035156 32.03550781 -4.82035156 32.03550781 -6 32 C-4.6145759 27.76090342 -2.67287988 25.29341975 0.5 22.1875 C1.2940625 21.39730469 2.088125 20.60710937 2.90625 19.79296875 C5 18 5 18 7 18 C6.44406228 13.63985988 4.84191051 10.91458248 2.375 7.3125 C0.3984375 4.42578125 0.3984375 4.42578125 -1 2 C-0.67 1.34 -0.34 0.68 0 0 Z " fill="#EEECF7" transform="translate(144,100)"/>
<path d="M0 0 C0.99 0 1.98 0 3 0 C7.36492435 8.95317041 9.2196591 16.29524556 6 26 C2.4957257 33.76245622 -4.57567281 37.17879607 -12.12890625 40.29980469 C-18.62409522 42.73041559 -26.90714671 45.43033327 -33.8359375 43.484375 C-36.42641885 42.90455607 -38.84368365 43.05015969 -41.48217773 43.16674805 C-51.32230137 43.54905204 -59.71340341 41.63810342 -69.03369141 38.6328125 C-71.71667556 37.76935398 -74.42060303 36.98089149 -77.125 36.1875 C-78.41729417 35.79372013 -79.70927478 35.39889247 -81 35 C-81 34.34 -81 33.68 -81 33 C-76.05860366 32.82391461 -72.02311103 33.09211584 -67.21557617 34.4230957 C-54.56528198 37.9140037 -39.18965275 39.1618847 -26.27856445 36.42260742 C-24 36 -24 36 -22 37 C-19.15888532 35.57913637 -19.15888532 35.57913637 -16.0625 33.625 C-10.26354319 30.08784773 -10.26354319 30.08784773 -7 29 C-7 28.34 -7 27.68 -7 27 C-6.34 27 -5.68 27 -5 27 C-5 26.34 -5 25.68 -5 25 C-4.34 25 -3.68 25 -3 25 C0.33530434 16.56247415 0.32177688 8.93824669 0 0 Z " fill="#C7DAFD" transform="translate(180,20)"/>
<path d="M0 0 C0.66 0.33 1.32 0.66 2 1 C1.38235276 7.7941196 0.25918617 14.44361078 -0.98364258 21.14624023 C-1.53237051 24.14272178 -2 26.94632038 -2 30 C3.61 30.33 9.22 30.66 15 31 C16 33 16 33 15.0625 36.125 C14.711875 37.07375 14.36125 38.0225 14 39 C10.41682042 39.08720919 6.83391433 39.14046112 3.25 39.1875 C2.23421875 39.21263672 1.2184375 39.23777344 0.171875 39.26367188 C-0.8078125 39.27333984 -1.7875 39.28300781 -2.796875 39.29296875 C-3.69760742 39.3086792 -4.59833984 39.32438965 -5.52636719 39.34057617 C-8.52127819 38.92822907 -9.84823872 38.09985675 -12 36 C-13.99979829 28.58590066 -12.13453262 21.46236598 -10.6875 14.0625 C-10.46126953 12.81919922 -10.23503906 11.57589844 -10.00195312 10.29492188 C-8.71474462 3.51018312 -8.71474462 3.51018312 -8 1 C-5.26094655 -0.36952673 -3.02912668 -0.12621361 0 0 Z " fill="#EDE7F8" transform="translate(90,93)"/>
<path d="M0 0 C0.66 0 1.32 0 2 0 C4.50173375 5.0034675 3.16162835 11.80668446 1.703125 17.015625 C0.0501652 21.68064488 -2.26154072 25.89231107 -5 30 C-5.66 30 -6.32 30 -7 30 C-7.66 31.32 -8.32 32.64 -9 34 C-9.66 34 -10.32 34 -11 34 C-11 34.66 -11 35.32 -11 36 C-12.45537568 36.83848804 -13.91440373 37.67063934 -15.375 38.5 C-16.18710938 38.9640625 -16.99921875 39.428125 -17.8359375 39.90625 C-20 41 -20 41 -22 41 C-21.67 40.01 -21.34 39.02 -21 38 C-20.34 38 -19.68 38 -19 38 C-19.33 37.34 -19.66 36.68 -20 36 C-22.64 36 -25.28 36 -28 36 C-28 35.34 -28 34.68 -28 34 C-29.65 33.34 -31.3 32.68 -33 32 C-33 31.67 -33 31.34 -33 31 C-32.24976563 30.85304688 -31.49953125 30.70609375 -30.7265625 30.5546875 C-19.88934452 28.17978079 -11.94661823 24.41175757 -5.40234375 15.234375 C-2.34998028 10.37099921 -0.70099508 5.74815967 0 0 Z " fill="#D0DBF9" transform="translate(190,36)"/>
<path d="M0 0 C2.64 0 5.28 0 8 0 C9.47978915 3.94316582 8.5876847 7.53762793 7.8203125 11.5390625 C7.62198318 12.62216202 7.62198318 12.62216202 7.41964722 13.72714233 C7.13931919 15.24916118 6.85497878 16.77044579 6.56689453 18.29101562 C6.12554193 20.62213767 5.69649314 22.95526622 5.26953125 25.2890625 C4.99550686 26.76836183 4.72079098 28.24753327 4.4453125 29.7265625 C4.31609406 30.42552643 4.18687561 31.12449036 4.05374146 31.84463501 C3.11691472 36.76617055 3.11691472 36.76617055 2 39 C-0.97 39 -3.94 39 -7 39 C-6.55975315 31.62586527 -5.44140008 24.49678793 -4.0625 17.25 C-3.89266602 16.35128174 -3.72283203 15.45256348 -3.54785156 14.52661133 C-2.5892641 9.59810234 -1.46327754 4.80322492 0 0 Z " fill="#EEEBF7" transform="translate(265,93)"/>
<path d="M0 0 C0.99 0.33 1.98 0.66 3 1 C3 1.99 3 2.98 3 4 C4.65614657 4.38218767 6.32457024 4.71395102 8 5 C8.33 4.67 8.66 4.34 9 4 C10.85287502 3.92773498 12.70833878 3.9161878 14.5625 3.9375 C15.57441406 3.94652344 16.58632812 3.95554688 17.62890625 3.96484375 C18.41136719 3.97644531 19.19382813 3.98804688 20 4 C20 6.97 20 9.94 20 13 C17.75 13.75 17.75 13.75 15 14 C12.6875 12.0625 12.6875 12.0625 11 10 C10.01 11.485 10.01 11.485 9 13 C7.68 12.67 6.36 12.34 5 12 C4.67 10.68 4.34 9.36 4 8 C3.67 9.65 3.34 11.3 3 13 C-0.66666667 13 -4.33333333 13 -8 13 C-9.2375 13.7734375 -9.2375 13.7734375 -10.5 14.5625 C-11.7375 15.2740625 -11.7375 15.2740625 -13 16 C-13.99 15.67 -14.98 15.34 -16 15 C-16 11.37 -16 7.74 -16 4 C-13.03 4 -10.06 4 -7 4 C-6.67 3.34 -6.34 2.68 -6 2 C-5.01 2 -4.02 2 -3 2 C-3 2.66 -3 3.32 -3 4 C-2.34 4 -1.68 4 -1 4 C-1.66 5.98 -2.32 7.96 -3 10 C-2.01 10 -1.02 10 0 10 C-0.08378906 9.36191406 -0.16757813 8.72382813 -0.25390625 8.06640625 C-0.35574219 7.24011719 -0.45757812 6.41382813 -0.5625 5.5625 C-0.66691406 4.73878906 -0.77132812 3.91507813 -0.87890625 3.06640625 C-0.91886719 2.38449219 -0.95882812 1.70257813 -1 1 C-0.67 0.67 -0.34 0.34 0 0 Z M-12 7 C-12 7.99 -12 8.98 -12 10 C-11.34 10 -10.68 10 -10 10 C-10 9.01 -10 8.02 -10 7 C-10.66 7 -11.32 7 -12 7 Z " fill="#DFDCEE" transform="translate(90,140)"/>
<path d="M0 0 C5.41228253 -0.33826766 9.41544613 -0.02981482 14.4765625 2.12890625 C18.06381173 3.36722913 21.71265449 4.05023513 25.4375 4.75 C26.16074463 4.88962158 26.88398926 5.02924316 27.62915039 5.1730957 C29.41127293 5.49732976 31.2052969 5.75478733 33 6 C33.33 5.67 33.66 5.34 34 5 C36.5 4.875 36.5 4.875 39 5 C39.495 5.495 39.495 5.495 40 6 C42.5155973 6.15572745 44.98265766 6.23843444 47.5 6.25 C48.22670898 6.25394775 48.95341797 6.25789551 49.70214844 6.26196289 C54.61297529 6.20882253 58.67778665 5.59499601 63.203125 3.55859375 C65.45920861 2.85724602 66.79217522 3.26243022 69 4 C62.73286231 10.26713769 51.14003298 10.48538281 42.80078125 10.7265625 C39.86247067 10.71416043 39.86247067 10.71416043 38 13 C34.98694043 12.61121812 33.60314689 11.73543126 31 10 C28.73713142 9.39452483 28.73713142 9.39452483 26.2109375 9 C25.26863281 8.835 24.32632813 8.67 23.35546875 8.5 C22.37191406 8.335 21.38835937 8.17 20.375 8 C13.53763547 6.82525817 6.76075689 5.56124695 0 4 C0 2.68 0 1.36 0 0 Z " fill="#CBC9F1" transform="translate(101,79)"/>
<path d="M0 0 C0.99 0 1.98 0 3 0 C3.33 1.32 3.66 2.64 4 4 C6.31 4 8.62 4 11 4 C11 6.97 11 9.94 11 13 C7.93696422 13.08115993 4.87609185 13.14057409 1.8125 13.1875 C0.94818359 13.21263672 0.08386719 13.23777344 -0.80664062 13.26367188 C-5.73038334 13.32026662 -8.96831189 13.18027571 -13 10 C-13.33 10.99 -13.66 11.98 -14 13 C-14.99 13 -15.98 13 -17 13 C-16.45660208 8.43545749 -15.20536179 5.0271824 -13 1 C-11.68 1 -10.36 1 -9 1 C-8.34 2.98 -7.68 4.96 -7 7 C-6.34 6.01 -5.68 5.02 -5 4 C-3.68 4 -2.36 4 -1 4 C-0.67 2.68 -0.34 1.36 0 0 Z M-2 6 C-2.33 7.32 -2.66 8.64 -3 10 C-2.34 10 -1.68 10 -1 10 C-1.33 8.68 -1.66 7.36 -2 6 Z " fill="#D7D4EC" transform="translate(62,140)"/>
<path d="M0 0 C0.99 0 1.98 0 3 0 C6.92633327 8.0535487 8.84614432 14.54968929 6.875 23.48828125 C5.44391839 27.59625213 2.9955514 30.87344781 0 34 C-0.33 34 -0.66 34 -1 34 C-1 32.02 -1 30.04 -1 28 C-6.445 31.465 -6.445 31.465 -12 35 C-12.99 34.34 -13.98 33.68 -15 33 C-9.25 29 -9.25 29 -7 29 C-7 28.34 -7 27.68 -7 27 C-6.34 27 -5.68 27 -5 27 C-5 26.34 -5 25.68 -5 25 C-4.34 25 -3.68 25 -3 25 C0.33530434 16.56247415 0.32177688 8.93824669 0 0 Z " fill="#ADD3F8" transform="translate(180,20)"/>
<path d="M0 0 C0.66 0.33 1.32 0.66 2 1 C2.625 3.0625 2.625 3.0625 3 5 C3.33 4.67 3.66 4.34 4 4 C6.51136104 3.90024968 8.98903415 3.86117817 11.5 3.875 C12.20253906 3.87113281 12.90507812 3.86726562 13.62890625 3.86328125 C18.87338622 3.87338622 18.87338622 3.87338622 20 5 C20.14115161 7.67058851 20.04247107 10.32432238 20 13 C19.01 13 18.02 13 17 13 C17 11.02 17 9.04 17 7 C16.34 7 15.68 7 15 7 C15 8.98 15 10.96 15 13 C8.07 13 1.14 13 -6 13 C-8.25 5.125 -8.25 5.125 -7 2 C-6.01 2 -5.02 2 -4 2 C-4 2.66 -4 3.32 -4 4 C-3.34 4 -2.68 4 -2 4 C-1.34 2.68 -0.68 1.36 0 0 Z M-3 6 C-2 10 -2 10 -2 10 Z M5 7 C5.33 7.99 5.66 8.98 6 10 C6.66 10 7.32 10 8 10 C8 9.01 8 8.02 8 7 C7.01 7 6.02 7 5 7 Z " fill="#E4E2F2" transform="translate(175,140)"/>
<path d="M0 0 C-1.65 1.65 -3.3 3.3 -5 5 C-3.35 5 -1.7 5 0 5 C0 5.33 0 5.66 0 6 C-0.67466309 6.01981934 -1.34932617 6.03963867 -2.04443359 6.06005859 C-5.15495861 6.1563811 -8.26490789 6.2656181 -11.375 6.375 C-12.96634766 6.42140625 -12.96634766 6.42140625 -14.58984375 6.46875 C-21.24602788 6.71376291 -27.51818952 7.45532884 -34 9 C-33 7 -33 7 -30 5 C-30 3.68 -30 2.36 -30 1 C-30.99 0.67 -31.98 0.34 -33 0 C-22.54814553 -3.48395149 -10.51033747 -3.00295356 0 0 Z " fill="#6761C5" transform="translate(72,64)"/>
<path d="M0 0 C0.66 0 1.32 0 2 0 C2.33 1.65 2.66 3.3 3 5 C3.33 4.67 3.66 4.34 4 4 C6.33297433 3.95907063 8.66705225 3.95758277 11 4 C12.35439668 6.70879335 12.06501451 9.00933268 12 12 C9.75 13.125 9.75 13.125 7 14 C5.65022151 13.36729133 4.31647119 12.69937532 3 12 C1.32577014 12.29299023 -0.34178227 12.62690101 -2 13 C-4.3125 12.5625 -4.3125 12.5625 -6 12 C-6.33 10.68 -6.66 9.36 -7 8 C-7.33 9.65 -7.66 11.3 -8 13 C-10.33294775 13.04241723 -12.66702567 13.04092937 -15 13 C-16 12 -16 12 -16.09765625 10.15234375 C-16.06510417 8.1015625 -16.03255208 6.05078125 -16 4 C-15.01 4 -14.02 4 -13 4 C-12.67 5.65 -12.34 7.3 -12 9 C-11.67 7.35 -11.34 5.7 -11 4 C-9.35 4 -7.7 4 -6 4 C-5.67 3.01 -5.34 2.02 -5 1 C-4.34 1.33 -3.68 1.66 -3 2 C-3 2.66 -3 3.32 -3 4 C-2.34 4 -1.68 4 -1 4 C-0.67 2.68 -0.34 1.36 0 0 Z M7 6 C7 7.32 7 8.64 7 10 C7.66 10 8.32 10 9 10 C8.67 8.68 8.34 7.36 8 6 C7.67 6 7.34 6 7 6 Z M-4 7 C-4 7.99 -4 8.98 -4 10 C-3.01 10 -2.02 10 -1 10 C-1 9.01 -1 8.02 -1 7 C-1.99 7 -2.98 7 -4 7 Z " fill="#F1F0FA" transform="translate(239,140)"/>
<path d="M0 0 C6.28372313 0.51788927 12.62291818 1.32400367 18.5625 3.5 C29.7916562 7.57211159 42.18778851 7.49622443 54 8 C53.67 8.66 53.34 9.32 53 10 C36.83313695 15.38895435 16.81561171 11.2747315 2 4 C0.140625 2.34375 0.140625 2.34375 -1 1 C-0.67 0.67 -0.34 0.34 0 0 Z " fill="#5A51AF" transform="translate(99,73)"/>
<path d="M0 0 C1.32 0 2.64 0 4 0 C4.66 0.99 5.32 1.98 6 3 C6.33 2.67 6.66 2.34 7 2 C8.99954746 1.95745644 11.00041636 1.95919217 13 2 C13.66 2 14.32 2 15 2 C17.66666667 2 20.33333333 2 23 2 C23.02698189 3.62490954 23.04638757 5.24994633 23.0625 6.875 C23.07410156 7.77992188 23.08570313 8.68484375 23.09765625 9.6171875 C23 12 23 12 22 14 C19.69 14 17.38 14 15 14 C15 13.01 15 12.02 15 11 C14.67 10.34 14.34 9.68 14 9 C13.01 10.485 13.01 10.485 12 12 C8.37 11.67 4.74 11.34 1 11 C1 8.69 1 6.38 1 4 C0.34 4 -0.32 4 -1 4 C-0.67 2.68 -0.34 1.36 0 0 Z M4 4 C5 8 5 8 5 8 Z M18 4 C17.67 4.99 17.34 5.98 17 7 C17.99 7 18.98 7 20 7 C19.67 6.01 19.34 5.02 19 4 C18.67 4 18.34 4 18 4 Z " fill="#E6E4F2" transform="translate(129,142)"/>
<path d="M0 0 C1.24716797 0.01353516 2.49433594 0.02707031 3.77929688 0.04101562 C6.83248967 0.0761098 9.8847599 0.12527733 12.9375 0.1875 C13.4325 1.6725 13.4325 1.6725 13.9375 3.1875 C15.75083636 3.97581765 15.75083636 3.97581765 17.97265625 4.35546875 C18.78154297 4.52626953 19.59042969 4.69707031 20.42382812 4.87304688 C21.27396484 5.03869141 22.12410156 5.20433594 23 5.375 C23.85400391 5.55224609 24.70800781 5.72949219 25.58789062 5.91210938 C27.70200895 6.3491059 29.81947834 6.76983206 31.9375 7.1875 C31.9375 7.5175 31.9375 7.8475 31.9375 8.1875 C26.10690285 9.16144504 21.4521254 9.08600971 15.6875 7.875 C14.99398437 7.74416016 14.30046875 7.61332031 13.5859375 7.47851562 C10.85817544 6.93766625 8.38392397 6.4293491 5.92578125 5.09765625 C2.84012874 3.68516699 -0.29644678 3.89370325 -3.625 3.9375 C-4.68267578 3.94330078 -4.68267578 3.94330078 -5.76171875 3.94921875 C-11.66623235 4.04583806 -17.31185006 4.822939 -23.0625 6.1875 C-22.4025 6.8475 -21.7425 7.5075 -21.0625 8.1875 C-23.3725 7.8575 -25.6825 7.5275 -28.0625 7.1875 C-27.7325 5.5375 -27.4025 3.8875 -27.0625 2.1875 C-26.19226196 2.47911011 -26.19226196 2.47911011 -25.30444336 2.77661133 C-22.64877912 3.26332405 -21.63702406 2.82693308 -19.19140625 1.76171875 C-12.88603173 -0.50893979 -6.62248783 -0.13730836 0 0 Z " fill="#86BFF2" transform="translate(72.0625,44.8125)"/>
<path d="M0 0 C0.66 0.33 1.32 0.66 2 1 C2 4.96 2 8.92 2 13 C0.68 12.67 -0.64 12.34 -2 12 C-4.33491639 12.32205743 -6.66842508 12.65458149 -9 13 C-9.66 12.67 -10.32 12.34 -11 12 C-11.78375 12.350625 -12.5675 12.70125 -13.375 13.0625 C-16 14 -16 14 -18.3125 13.125 C-18.869375 12.75375 -19.42625 12.3825 -20 12 C-20 11.01 -20 10.02 -20 9 C-18.68 9 -17.36 9 -16 9 C-17.32 8.34 -18.64 7.68 -20 7 C-19.125 2.125 -19.125 2.125 -18 1 C-15.66055264 1.28730055 -13.3260857 1.61936779 -11 2 C-11.33 2.99 -11.66 3.98 -12 5 C-13.32 4.67 -14.64 4.34 -16 4 C-16 4.66 -16 5.32 -16 6 C-14.02 6 -12.04 6 -10 6 C-10 5.34 -10 4.68 -10 4 C-7.69 4 -5.38 4 -3 4 C-2.67 4.66 -2.34 5.32 -2 6 C-1.34 4.02 -0.68 2.04 0 0 Z M-7 7 C-7 7.99 -7 8.98 -7 10 C-6.34 10 -5.68 10 -5 10 C-5 9.01 -5 8.02 -5 7 C-5.66 7 -6.32 7 -7 7 Z " fill="#E3DFF2" transform="translate(220,140)"/>
<path d="M0 0 C0 1.65 0 3.3 0 5 C1.98 5 3.96 5 6 5 C5.01 5.495 5.01 5.495 4 6 C4 6.66 4 7.32 4 8 C2.865625 8.350625 1.73125 8.70125 0.5625 9.0625 C-8.3695072 12.46140539 -14.49035743 18.68937297 -19 27 C-19.33 27.99 -19.66 28.98 -20 30 C-20.99 30 -21.98 30 -23 30 C-21.52665005 20.49175326 -15.53271204 12.75341177 -9 6 C-8.44828125 5.39800781 -7.8965625 4.79601563 -7.328125 4.17578125 C-3.39568765 0 -3.39568765 0 0 0 Z " fill="#70C0F3" transform="translate(35,58)"/>
<path d="M0 0 C2.80828805 0.08259671 4.52400492 0.55775518 6.59765625 2.484375 C13.45254438 10.36665423 13.48270978 16.82111978 13 27 C12.71296588 30.4536686 12.23035393 32.70041447 11 36 C8.1875 37.375 8.1875 37.375 5 38 C4.13375 38.556875 3.2675 39.11375 2.375 39.6875 C0 41 0 41 -2.1484375 40.58203125 C-3.06496094 40.29392578 -3.06496094 40.29392578 -4 40 C-3.51789063 39.69707031 -3.03578125 39.39414062 -2.5390625 39.08203125 C1.52586756 36.38590417 3.38794726 34.71215417 5 30 C5.66644531 29.57332031 6.33289063 29.14664063 7.01953125 28.70703125 C9.25348791 27.13450872 9.25348791 27.13450872 9.53125 24.36328125 C9.46090665 17.49601163 8.62444049 12.82026941 5 7 C4.32213714 5.67232377 3.65252079 4.34031297 3 3 C2.34 3 1.68 3 1 3 C0.67 2.01 0.34 1.02 0 0 Z " fill="#9ED8FB" transform="translate(159,11)"/>
<path d="M0 0 C0.33 0.66 0.66 1.32 1 2 C0.319375 2.86625 -0.36125 3.7325 -1.0625 4.625 C-3.32873089 7.84233894 -3.32873089 7.84233894 -2.75 11.375 C-2.5025 12.24125 -2.255 13.1075 -2 14 C-1.01 14 -0.02 14 1 14 C-0.47172121 18.41516363 -2.31781877 23.01718042 -6 26 C-9.40972503 26.59526593 -12.57580066 26.41888264 -16 26 C-16 25.01 -16 24.02 -16 23 C-15.34 23 -14.68 23 -14 23 C-13.72816895 22.26628174 -13.45633789 21.53256348 -13.17626953 20.77661133 C-12.05318327 18.12554034 -10.78879641 15.95364576 -9.1796875 13.57421875 C-8.64472656 12.77822266 -8.10976562 11.98222656 -7.55859375 11.16210938 C-7.00300781 10.34548828 -6.44742188 9.52886719 -5.875 8.6875 C-5.31167969 7.85154297 -4.74835938 7.01558594 -4.16796875 6.15429688 C-2.78279211 4.10000948 -1.39337781 2.04872962 0 0 Z " fill="#E2DFF1" transform="translate(189,106)"/>
<path d="M0 0 C3.00189272 0.42668032 6.00104612 0.86598909 9 1.3125 C10.25876953 1.48942383 10.25876953 1.48942383 11.54296875 1.66992188 C17.06633545 2.5048494 21.8162797 3.92651188 27 6 C28.98956785 6.39080797 30.98806977 6.74850872 33 7 C33 7.66 33 8.32 33 9 C21.94305724 9.1139891 11.02363628 8.91050683 0 8 C0 5.36 0 2.72 0 0 Z " fill="#8ECDFB" transform="translate(84,58)"/>
<path d="M0 0 C0 0.99 0 1.98 0 3 C-1.98 3 -3.96 3 -6 3 C-6 2.34 -6 1.68 -6 1 C-8.97 1.99 -11.94 2.98 -15 4 C-13.35 4.66 -11.7 5.32 -10 6 C-10.33 6.66 -10.66 7.32 -11 8 C-9.68 8.99 -8.36 9.98 -7 11 C-13.87251181 9.87335872 -20.42168102 8.0615644 -27.0625 6 C-28.34894409 5.60820557 -28.34894409 5.60820557 -29.66137695 5.20849609 C-30.46534912 4.95406738 -31.26932129 4.69963867 -32.09765625 4.4375 C-32.82476807 4.20933594 -33.55187988 3.98117188 -34.30102539 3.74609375 C-36 3 -36 3 -37 1 C-11.0298471 -0.19388403 -11.0298471 -0.19388403 0 0 Z " fill="#CDD9F9" transform="translate(132,68)"/>
<path d="M0 0 C2.00720923 0.28674418 4.0085944 0.61866701 6 1 C6 2.65 6 4.3 6 6 C4.35 6.33 2.7 6.66 1 7 C1 7.66 1 8.32 1 9 C0.34 9 -0.32 9 -1 9 C-1.185625 9.804375 -1.185625 9.804375 -1.375 10.625 C-2 13 -2 13 -3.0078125 15.60546875 C-4.40674816 20.39159115 -4.42320531 25.02904867 -4.56640625 29.98632812 C-4.72134873 33.80262884 -4.83510382 35.75265573 -7 39 C-8.95222703 28.01872298 -9.23935703 16.61900876 -3 7 C-2.31039038 5.00779443 -1.63920943 3.00894394 -1 1 C-0.67 0.67 -0.34 0.34 0 0 Z " fill="#B0A8E2" transform="translate(35,98)"/>
<path d="M0 0 C1.0828125 0.7425 1.0828125 0.7425 2.1875 1.5 C5.6051436 3.25347035 8.57883896 3.10581634 12.375 3 C18.08119579 2.84312864 21.85909313 3.58074971 27 6 C23.33292635 9.12380348 20.54837974 10.14811096 15.71484375 9.8671875 C9.23000879 9.23000879 9.23000879 9.23000879 8 8 C5.65012738 7.76472227 3.29443961 7.58613583 0.9375 7.4375 C-0.99802734 7.31181641 -0.99802734 7.31181641 -2.97265625 7.18359375 C-4.47119141 7.09271484 -4.47119141 7.09271484 -6 7 C-4.68 6.67 -3.36 6.34 -2 6 C-1.855625 5.195625 -1.71125 4.39125 -1.5625 3.5625 C-1 1 -1 1 0 0 Z " fill="#AFDAFB" transform="translate(79,72)"/>
<path d="M0 0 C5.28 0 10.56 0 16 0 C17 7 17 7 16.0625 8.9375 C12.70293277 10.66818615 9.74536126 10.24163621 6 10 C5 9 5 9 4.9375 5.9375 C4.958125 4.968125 4.97875 3.99875 5 3 C4.34 3 3.68 3 3 3 C3 4.98 3 6.96 3 9 C2.01 9 1.02 9 0 9 C0 6.03 0 3.06 0 0 Z " fill="#E9E6F2" transform="translate(252,144)"/>
<path d="M0 0 C2.24956302 2.24956302 3.00510965 4.06323263 4.1875 7 C4.55230469 7.886875 4.91710938 8.77375 5.29296875 9.6875 C6 12 6 12 5 14 C4.01 14.33 3.02 14.66 2 15 C2.433125 15.69867188 2.86625 16.39734375 3.3125 17.1171875 C3.869375 18.02726562 4.42625 18.93734375 5 19.875 C5.556875 20.77992188 6.11375 21.68484375 6.6875 22.6171875 C8 25 8 25 8 27 C4.18063472 25.44396229 1.73955562 23.04395069 -1 20 C-1 19.34 -1 18.68 -1 18 C-1.66 18 -2.32 18 -3 18 C-7 12.58823529 -7 12.58823529 -7 10 C-5.02 9.34 -3.04 8.68 -1 8 C-0.67 8.66 -0.34 9.32 0 10 C0 6.7 0 3.4 0 0 Z " fill="#E3DBF3" transform="translate(29,134)"/>
<path d="M0 0 C0.33 0.99 0.66 1.98 1 3 C0.34 3 -0.32 3 -1 3 C-1 3.66 -1 4.32 -1 5 C-0.01 5 0.98 5 2 5 C2.8125 7.125 2.8125 7.125 3 10 C0.71624847 14.32281539 0.71624847 14.32281539 -2 16 C-5.71999728 16.50608659 -9.270252 16.35272573 -13 16 C-11.6145759 11.76090342 -9.67287988 9.29341975 -6.5 6.1875 C-5.7059375 5.39730469 -4.911875 4.60710937 -4.09375 3.79296875 C-2 2 -2 2 0 2 C0 1.34 0 0.68 0 0 Z " fill="#E1DCF3" transform="translate(151,116)"/>
<path d="M0 0 C0.5 2.6875 0.5 2.6875 0 6 C-5.47383602 11.384101 -14.1511883 13.80092353 -21.625 14.1875 C-22.800625 14.0946875 -22.800625 14.0946875 -24 14 C-21.93649601 9.98159749 -20.16638532 7.84096095 -16 6 C-14.6078125 6.0928125 -14.6078125 6.0928125 -13.1875 6.1875 C-8.89766468 5.93515675 -6.95756576 4.01098529 -3.734375 1.3125 C-2 0 -2 0 0 0 Z " fill="#C0D4F7" transform="translate(179,48)"/>
<path d="M0 0 C1.9375 0.6875 1.9375 0.6875 4 2 C4.144375 2.825 4.28875 3.65 4.4375 4.5 C4.623125 5.325 4.80875 6.15 5 7 C5.721875 7.268125 6.44375 7.53625 7.1875 7.8125 C11.53624106 9.64863511 13.45085712 13.14485789 16 17 C16.41894531 17.6290625 16.83789062 18.258125 17.26953125 18.90625 C19.42292922 22.37603613 20.49648207 24.9040229 20 29 C19.34 29 18.68 29 18 29 C17.61521484 28.09121094 17.61521484 28.09121094 17.22265625 27.1640625 C13.89696062 19.88560405 9.28768305 11.64867487 1.86328125 7.9296875 C-0.20545153 7.28069003 -0.20545153 7.28069003 -3 7 C-3.1875 4.625 -3.1875 4.625 -3 2 C-2.01 1.34 -1.02 0.68 0 0 Z " fill="#A0BEEF" transform="translate(172,4)"/>
<path d="M0 0 C0.66 0 1.32 0 2 0 C2.20496094 1.12019531 2.40992188 2.24039063 2.62109375 3.39453125 C2.89311689 4.86720824 3.16525849 6.33986336 3.4375 7.8125 C3.57220703 8.55048828 3.70691406 9.28847656 3.84570312 10.04882812 C4.41419737 13.11315076 5.01309651 16.03928953 6 19 C3.35261084 20.4606285 2.10551666 21 -1 21 C-2.56633048 18.51229865 -3.04100928 17.34447796 -2.6875 14.375 C-2 12 -2 12 -1 10 C-1.99 9.67 -2.98 9.34 -4 9 C-4.33 7.02 -4.66 5.04 -5 3 C-3.35 2.67 -1.7 2.34 0 2 C0 1.34 0 0.68 0 0 Z " fill="#EBE6F8" transform="translate(22,123)"/>
<path d="M0 0 C0 2.31 0 4.62 0 7 C-6.6 7 -13.2 7 -20 7 C-16 1 -16 1 -13.125 -0.05859375 C-12.09375 -0.18363281 -11.0625 -0.30867188 -10 -0.4375 C-8.96875 -0.58058594 -7.9375 -0.72367187 -6.875 -0.87109375 C-4.27747702 -0.98755877 -2.44793245 -0.80617006 0 0 Z " fill="#F5F1FB" transform="translate(79,94)"/>
<path d="M0 0 C2.6015625 -0.29296875 2.6015625 -0.29296875 5.625 -0.1875 C7.12933594 -0.14689453 7.12933594 -0.14689453 8.6640625 -0.10546875 C9.43492188 -0.07066406 10.20578125 -0.03585938 11 0 C11 2.97 11 5.94 11 9 C8.75 9.75 8.75 9.75 6 10 C3.6875 8.0625 3.6875 8.0625 2 6 C1.01 7.485 1.01 7.485 0 9 C-1.32 8.67 -2.64 8.34 -4 8 C-4 6.02 -4 4.04 -4 2 C-3.01 2.495 -3.01 2.495 -2 3 C-1.34 2.01 -0.68 1.02 0 0 Z " fill="#E8E3F6" transform="translate(99,144)"/>
<path d="M0 0 C0.99 0 1.98 0 3 0 C6.87266119 7.94345853 8.63696545 14.08763253 7 23 C5.68 23 4.36 23 3 23 C1.32871068 20.05618512 0.72268241 17.82616606 0.5859375 14.453125 C0.54726562 13.60878906 0.50859375 12.76445313 0.46875 11.89453125 C0.4378125 11.02183594 0.406875 10.14914063 0.375 9.25 C0.33632812 8.36183594 0.29765625 7.47367188 0.2578125 6.55859375 C0.16379127 4.3726002 0.07813857 2.18660938 0 0 Z " fill="#9BE1FD" transform="translate(180,20)"/>
<path d="M0 0 C5.80556821 -0.20153708 10.59731812 0.46593132 16.1875 1.9375 C26.39272459 4.44144885 36.53152556 4.79352121 47 5 C47 5.33 47 5.66 47 6 C46.03960815 6.03758423 46.03960815 6.03758423 45.05981445 6.07592773 C42.14386274 6.1923546 39.2281971 6.31486867 36.3125 6.4375 C35.30509766 6.47681641 34.29769531 6.51613281 33.25976562 6.55664062 C32.28330078 6.59853516 31.30683594 6.64042969 30.30078125 6.68359375 C29.40528564 6.72025146 28.50979004 6.75690918 27.5871582 6.79467773 C24.98960187 6.93500371 24.98960187 6.93500371 22.47265625 7.59570312 C19.59357014 8.06645417 17.90481441 7.66023165 15.13671875 6.78515625 C13.80737305 6.37426758 13.80737305 6.37426758 12.45117188 5.95507812 C11.0831543 5.51325195 11.0831543 5.51325195 9.6875 5.0625 C8.75615234 4.77181641 7.82480469 4.48113281 6.86523438 4.18164062 C4.57336489 3.46469684 2.28540582 2.73723793 0 2 C0 1.34 0 0.68 0 0 Z " fill="#B8C8F3" transform="translate(99,53)"/>
<path d="M0 0 C0.66 0 1.32 0 2 0 C4.87061201 5.74122403 2.70631376 13.17845892 1 19 C0.67 19.99 0.34 20.98 0 22 C-2.86724686 21.42655063 -3.8614515 21.1385485 -6 19 C-7.32 19.99 -8.64 20.98 -10 22 C-8.91611365 19.56125571 -7.78814964 17.74714634 -6.0625 15.6875 C-2.39149167 10.9040649 -0.72504501 5.94536909 0 0 Z " fill="#ADCBF5" transform="translate(190,36)"/>
<path d="M0 0 C0.66 0.33 1.32 0.66 2 1 C2.625 3.0625 2.625 3.0625 3 5 C3.33 4.67 3.66 4.34 4 4 C6.33297433 3.95907063 8.66705225 3.95758277 11 4 C12.4783226 6.95664519 12.06032783 9.74229737 12 13 C11.01 13 10.02 13 9 13 C8.67 11.35 8.34 9.7 8 8 C7.67 9.65 7.34 11.3 7 13 C6.4225 12.814375 5.845 12.62875 5.25 12.4375 C2.77511403 11.95627217 1.39014524 12.32212267 -1 13 C-1.02686553 11.02090602 -1.04633375 9.04171029 -1.0625 7.0625 C-1.07410156 5.96035156 -1.08570312 4.85820312 -1.09765625 3.72265625 C-1 1 -1 1 0 0 Z " fill="#E7E1F7" transform="translate(116,140)"/>
<path d="M0 0 C0.66 0 1.32 0 2 0 C2.04898437 1.01578125 2.09796875 2.0315625 2.1484375 3.078125 C2.5930859 11.50693339 3.38053854 19.69829465 5 28 C5.99 27.67 6.98 27.34 8 27 C8 27.99 8 28.98 8 30 C9.32 30 10.64 30 12 30 C11.01 32.475 11.01 32.475 10 35 C9.505 33.515 9.505 33.515 9 32 C6.525 32.495 6.525 32.495 4 33 C3.33333333 31 2.66666667 29 2 27 C1.66097656 26.08347656 1.32195313 25.16695312 0.97265625 24.22265625 C-1.33964195 16.56142726 -1.6787986 7.83439348 0 0 Z " fill="#D2C5EE" transform="translate(9,103)"/>
<path d="M0 0 C4.29 0 8.58 0 13 0 C13.87890625 6.15234375 13.87890625 6.15234375 14 8 C13 9 13 9 9.9375 9.0625 C8.968125 9.041875 7.99875 9.02125 7 9 C6.67 7.35 6.34 5.7 6 4 C5.34 4 4.68 4 4 4 C3.67 5.65 3.34 7.3 3 9 C2.01 9 1.02 9 0 9 C0 6.03 0 3.06 0 0 Z " fill="#E7E4F4" transform="translate(153,144)"/>
<path d="M0 0 C8.91 0.66 17.82 1.32 27 2 C26.67 2.66 26.34 3.32 26 4 C15.84062783 7.38645739 2.18598908 6.82684559 -8 4 C-8 3.67 -8 3.34 -8 3 C-6.865625 2.87625 -5.73125 2.7525 -4.5625 2.625 C-3.386875 2.41875 -2.21125 2.2125 -1 2 C-0.67 1.34 -0.34 0.68 0 0 Z " fill="#685EB3" transform="translate(126,79)"/>
<path d="M0 0 C0.99386719 0.00902344 1.98773438 0.01804687 3.01171875 0.02734375 C4.15060547 0.04474609 4.15060547 0.04474609 5.3125 0.0625 C5.3125 2.3725 5.3125 4.6825 5.3125 7.0625 C0.18666389 7.16501672 -4.63747778 7.09840199 -9.6875 6.0625 C-9.3575 4.4125 -9.0275 2.7625 -8.6875 1.0625 C-5.53819107 0.01273036 -3.29935544 -0.03881595 0 0 Z " fill="#F6F2FC" transform="translate(131.6875,112.9375)"/>
<path d="M0 0 C-6.26713769 6.26713769 -17.85996702 6.48538281 -26.19921875 6.7265625 C-29.13752933 6.71416043 -29.13752933 6.71416043 -31 9 C-31.99 8.67 -32.98 8.34 -34 8 C-33.34 8 -32.68 8 -32 8 C-32 7.34 -32 6.68 -32 6 C-31.34 6 -30.68 6 -30 6 C-29.67 4.68 -29.34 3.36 -29 2 C-27.94941406 2.03480469 -26.89882812 2.06960937 -25.81640625 2.10546875 C-15.56454007 2.39902866 -15.56454007 2.39902866 -5.796875 -0.44140625 C-3.54079139 -1.14275398 -2.20782478 -0.73756978 0 0 Z " fill="#CDC0F0" transform="translate(170,83)"/>
<path d="M0 0 C9.69527822 -0.19219715 19.32867432 0.40418676 29 1 C26.6031335 3.3968665 25.92971686 3.28281133 22.6484375 3.4140625 C21.79765625 3.45273438 20.946875 3.49140625 20.0703125 3.53125 C19.18085937 3.5621875 18.29140625 3.593125 17.375 3.625 C16.02921875 3.68300781 16.02921875 3.68300781 14.65625 3.7421875 C12.43784395 3.83658776 10.21894987 3.91938805 8 4 C11.3 4.99 14.6 5.98 18 7 C18 7.33 18 7.66 18 8 C15.03 8 12.06 8 9 8 C9 7.34 9 6.68 9 6 C7.5459375 5.5978125 7.5459375 5.5978125 6.0625 5.1875 C5.051875 4.795625 4.04125 4.40375 3 4 C2.67 3.01 2.34 2.02 2 1 C1.34 0.67 0.68 0.34 0 0 Z " fill="#5962BA" transform="translate(88,66)"/>
<path d="M0 0 C0.99 0.33 1.98 0.66 3 1 C2.66465799 3.86282717 2.23162117 4.8105321 -0.0390625 6.66796875 C-5.11040377 9.64795629 -9.08175594 11.74268504 -15 12 C-15.33 10.35 -15.66 8.7 -16 7 C-15.02160156 6.74476562 -15.02160156 6.74476562 -14.0234375 6.484375 C-7.97167395 4.82556153 -7.97167395 4.82556153 -2.5625 1.75 C-1.716875 1.1725 -0.87125 0.595 0 0 Z " fill="#6058BB" transform="translate(177,54)"/>
<path d="M0 0 C7.04007955 0.9973446 13.43901392 2.2241982 20 5 C16.34811918 6.07174763 13.73567172 5.76411467 10 5 C9.67 6.98 9.34 8.96 9 11 C8.21625 10.505 7.4325 10.01 6.625 9.5 C4.21447673 7.83462035 4.21447673 7.83462035 2 8 C1.67 8.99 1.34 9.98 1 11 C-0.32 10.67 -1.64 10.34 -3 10 C-2.01 9.67 -1.02 9.34 0 9 C0.33 8.34 0.66 7.68 1 7 C0.34 6.67 -0.32 6.34 -1 6 C0.32 6 1.64 6 3 6 C2.67 4.68 2.34 3.36 2 2 C1.34 2 0.68 2 0 2 C0 1.34 0 0.68 0 0 Z " fill="#7EC1F2" transform="translate(75,54)"/>
<path d="M0 0 C1.65 1.32 3.3 2.64 5 4 C3.87548273 6.9719385 2.77706209 9.33440687 1 12 C0.01 12 -0.98 12 -2 12 C-1.67 11.01 -1.34 10.02 -1 9 C-3.87841298 7.66250062 -3.87841298 7.66250062 -6.0625 8.9375 C-6.701875 9.288125 -7.34125 9.63875 -8 10 C-8.66 10 -9.32 10 -10 10 C-10.99 10.495 -10.99 10.495 -12 11 C-12.66 10.34 -13.32 9.68 -14 9 C-13.24074219 8.60167969 -12.48148438 8.20335937 -11.69921875 7.79296875 C-10.70535156 7.26316406 -9.71148437 6.73335937 -8.6875 6.1875 C-7.70136719 5.66542969 -6.71523437 5.14335938 -5.69921875 4.60546875 C-3.38334932 3.2280124 -1.76388999 2.00469409 0 0 Z " fill="#C1D9FA" transform="translate(184,54)"/>
<path d="M0 0 C2.80828805 0.08259671 4.52400492 0.55775518 6.59765625 2.484375 C10.85079247 7.37495916 13.28618556 10.91340257 13.25 17.5625 C13.25515625 18.51253906 13.2603125 19.46257813 13.265625 20.44140625 C13 23 13 23 11 26 C11 22.37 11 18.74 11 15 C10.34 15 9.68 15 9 15 C7 11 5 7 3 3 C2.34 3 1.68 3 1 3 C0.67 2.01 0.34 1.02 0 0 Z " fill="#9FCAF7" transform="translate(159,11)"/>
<path d="M0 0 C1.32 0 2.64 0 4 0 C4.99 3.96 5.98 7.92 7 12 C5.68 11.34 4.36 10.68 3 10 C2.01 9.67 1.02 9.34 0 9 C-0.33 9.99 -0.66 10.98 -1 12 C-1.99 12 -2.98 12 -4 12 C-3.45660208 7.43545749 -2.20536179 4.0271824 0 0 Z " fill="#DCD7EF" transform="translate(49,141)"/>
<path d="M0 0 C7.59 0 15.18 0 23 0 C23 1.65 23 3.3 23 5 C21.0625 5.5625 21.0625 5.5625 19 6 C18.67 5.67 18.34 5.34 18 5 C15.35343976 4.62485082 12.71820275 4.2938029 10.0625 4 C2.26592179 3.13296089 2.26592179 3.13296089 0 2 C0 1.34 0 0.68 0 0 Z " fill="#9DAFF3" transform="translate(106,49)"/>
<path d="M0 0 C0.33 0.66 0.66 1.32 1 2 C0.67 2.99 0.34 3.98 0 5 C0.66 5 1.32 5 2 5 C2 5.66 2 6.32 2 7 C1.278125 7.680625 0.55625 8.36125 -0.1875 9.0625 C-3.75111 12.44283863 -5.78329222 16.67034523 -8 21 C-8.99 21 -9.98 21 -11 21 C-9.82884285 13.21109947 -5.20697536 5.80778021 0 0 Z " fill="#78B7F0" transform="translate(23,67)"/>
<path d="M0 0 C0 0.33 0 0.66 0 1 C2.97 1.495 2.97 1.495 6 2 C6 2.33 6 2.66 6 3 C4.24623047 3.19916016 4.24623047 3.19916016 2.45703125 3.40234375 C0.90884161 3.58062013 -0.63933478 3.75901161 -2.1875 3.9375 C-2.95642578 4.02451172 -3.72535156 4.11152344 -4.51757812 4.20117188 C-8.38772828 4.64964421 -12.19186624 5.1529001 -16 6 C-15.34 6.66 -14.68 7.32 -14 8 C-16.31 7.67 -18.62 7.34 -21 7 C-20.67 5.35 -20.34 3.7 -20 2 C-19.14341797 2.29197266 -19.14341797 2.29197266 -18.26953125 2.58984375 C-15.53454217 3.08411888 -14.24684634 2.58532936 -11.6875 1.5625 C-7.54583762 0.05394748 -4.38030924 -0.27959421 0 0 Z " fill="#8BB4ED" transform="translate(65,45)"/>
<path d="M0 0 C0.77649902 0.00410889 1.55299805 0.00821777 2.35302734 0.01245117 C3.64273438 0.01535156 3.64273438 0.01535156 4.95849609 0.01831055 C5.85955078 0.03055664 6.76060547 0.04280273 7.68896484 0.05541992 C8.56681641 0.05606445 9.44466797 0.05670898 10.34912109 0.05737305 C15.67031422 0.09295309 20.79856297 0.47581592 26.06396484 1.24291992 C22.80952395 3.41254718 21.89436408 3.49106281 18.13427734 3.47338867 C17.17392578 3.47145508 16.21357422 3.46952148 15.22412109 3.4675293 C14.22251953 3.4552832 13.22091797 3.44303711 12.18896484 3.43041992 C10.69816406 3.42945312 10.69816406 3.42945312 9.17724609 3.4284668 C4.65037713 3.4011965 0.49555933 3.24015302 -3.93603516 2.24291992 C-1.93603516 0.24291992 -1.93603516 0.24291992 0 0 Z " fill="#5E4EBD" transform="translate(128.93603515625,64.757080078125)"/>
<path d="M0 0 C7.99976044 -0.20483028 15.26134446 -0.13480153 23 2 C21.35877293 4.52496473 20.60385345 5.58107412 18 7 C13.30659644 7.45179989 8.7011794 7.28626938 4 7 C4 6.67 4 6.34 4 6 C9.445 5.505 9.445 5.505 15 5 C15.33 4.01 15.66 3.02 16 2 C10.39 2 4.78 2 -1 2 C-0.67 1.34 -0.34 0.68 0 0 Z " fill="#5258B8" transform="translate(49,62)"/>
<path d="M0 0 C0.65226562 0.13277344 1.30453125 0.26554687 1.9765625 0.40234375 C6.6408287 1.34482822 11.29868454 2.25768703 16 3 C16 3.66 16 4.32 16 5 C13.08308475 5.05401695 10.16717276 5.09368066 7.25 5.125 C6.425 5.14175781 5.6 5.15851563 4.75 5.17578125 C3.95078125 5.18222656 3.1515625 5.18867187 2.328125 5.1953125 C1.5949707 5.20578613 0.86181641 5.21625977 0.10644531 5.22705078 C-2.29896076 4.96777544 -3.91251494 4.19225925 -6 3 C-4.02 2.67 -2.04 2.34 0 2 C0 1.34 0 0.68 0 0 Z " fill="#96C2F6" transform="translate(101,62)"/>
<path d="M0 0 C2.31 0 4.62 0 7 0 C7 2.97 7 5.94 7 9 C5.00045254 9.04254356 2.99958364 9.04080783 1 9 C0 8 0 8 -0.09765625 6.15234375 C-0.06510417 4.1015625 -0.03255208 2.05078125 0 0 Z " fill="#F5F4FA" transform="translate(66,144)"/>
<path d="M0 0 C1.9375 0.6875 1.9375 0.6875 4 2 C4.75 4.625 4.75 4.625 5 7 C5.99 7.33 6.98 7.66 8 8 C7.01 9.485 7.01 9.485 6 11 C5.34 10.34 4.68 9.68 4 9 C1.68234271 8.28072705 -0.65095874 7.6090107 -3 7 C-3.1875 4.625 -3.1875 4.625 -3 2 C-2.01 1.34 -1.02 0.68 0 0 Z " fill="#93BAEC" transform="translate(172,4)"/>
<path d="M0 0 C0.99 0.33 1.98 0.66 3 1 C3 1.99 3 2.98 3 4 C4.32 4.33 5.64 4.66 7 5 C6 7 6 7 4 8 C3.34444881 10.52733235 3.34444881 10.52733235 3 13 C0.61435923 12.42415568 -1.66682784 11.77772405 -4 11 C-4 9.35 -4 7.7 -4 6 C-3.67 7.32 -3.34 8.64 -3 10 C-2.01 10 -1.02 10 0 10 C-0.08378906 9.36191406 -0.16757813 8.72382813 -0.25390625 8.06640625 C-0.35574219 7.24011719 -0.45757812 6.41382813 -0.5625 5.5625 C-0.66691406 4.73878906 -0.77132812 3.91507813 -0.87890625 3.06640625 C-0.91886719 2.38449219 -0.95882812 1.70257813 -1 1 C-0.67 0.67 -0.34 0.34 0 0 Z " fill="#D4CFF0" transform="translate(90,140)"/>
<path d="M0 0 C2.66353755 0.51520982 5.29499131 0.72949913 8 1 C7.34 1.66 6.68 2.32 6 3 C2.875 2.625 2.875 2.625 0 2 C0 2.99 0 3.98 0 5 C-4.62 4.01 -9.24 3.02 -14 2 C-14 1.67 -14 1.34 -14 1 C-12.42298018 0.44021816 -10.83800758 -0.09719401 -9.25 -0.625 C-7.92742187 -1.07746094 -7.92742187 -1.07746094 -6.578125 -1.5390625 C-3.50396296 -2.08868541 -2.63631923 -1.53076601 0 0 Z " fill="#6774C9" transform="translate(80,50)"/>
<path d="M0 0 C0.99 0 1.98 0 3 0 C6.87266119 7.94345853 8.63696545 14.08763253 7 23 C6.67 23 6.34 23 6 23 C5.34 17.06 4.68 11.12 4 5 C3.34 5 2.68 5 2 5 C2 7.97 2 10.94 2 14 C1.67 14 1.34 14 1 14 C0.67 9.38 0.34 4.76 0 0 Z " fill="#94BCEF" transform="translate(180,20)"/>
<path d="M0 0 C0.99 0 1.98 0 3 0 C3 0.66 3 1.32 3 2 C3.66 2 4.32 2 5 2 C4.1654738 4.50357861 3.20628008 6.66785852 2 9 C2.99 9 3.98 9 5 9 C5 9.66 5 10.32 5 11 C2.23723823 10.47731534 -0.3260876 9.89130413 -3 9 C-4.1875 5.9375 -4.1875 5.9375 -5 3 C-4.360625 2.87625 -3.72125 2.7525 -3.0625 2.625 C-2.0415625 2.315625 -2.0415625 2.315625 -1 2 C-0.67 1.34 -0.34 0.68 0 0 Z " fill="#E2DEF3" transform="translate(84,142)"/>
<path d="M0 0 C0.99 0 1.98 0 3 0 C3 0.66 3 1.32 3 2 C3.66 2 4.32 2 5 2 C6.0013988 5.00419641 6.51421457 7.87709365 7 11 C5.02 11 3.04 11 1 11 C-1.42857143 3.57142857 -1.42857143 3.57142857 0 0 Z " fill="#D8D5EE" transform="translate(168,142)"/>
<path d="M0 0 C-0.72445312 0.15855469 -1.44890625 0.31710938 -2.1953125 0.48046875 C-8.7814328 1.96614231 -8.7814328 1.96614231 -14.25 5.6875 C-17 8 -17 8 -20.875 8.3125 C-21.90625 8.209375 -22.9375 8.10625 -24 8 C-21.09689751 4.74169438 -18.68294796 3.21265222 -14.5625 1.8125 C-13.63566406 1.48894531 -12.70882812 1.16539063 -11.75390625 0.83203125 C-4.27901786 -1.42633929 -4.27901786 -1.42633929 0 0 Z " fill="#8CB8F4" transform="translate(52,71)"/>
<path d="M0 0 C7.26 0 14.52 0 22 0 C22 0.33 22 0.66 22 1 C19.36 1 16.72 1 14 1 C13.67 2.32 13.34 3.64 13 5 C11.01853549 4.55170486 9.03985789 4.09107502 7.0625 3.625 C5.96035156 3.36976562 4.85820313 3.11453125 3.72265625 2.8515625 C2.82417969 2.57054688 1.92570312 2.28953125 1 2 C0.67 1.34 0.34 0.68 0 0 Z " fill="#B8C7F8" transform="translate(95,69)"/>
<path d="M0 0 C-0.33 1.65 -0.66 3.3 -1 5 C-1.99 5 -2.98 5 -4 5 C-4 5.99 -4 6.98 -4 8 C-6.31 8.66 -8.62 9.32 -11 10 C-10 8 -10 8 -7 6 C-7 4.68 -7 3.36 -7 2 C-7.99 1.67 -8.98 1.34 -10 1 C-8.71073008 0.63720544 -7.41846728 0.28503302 -6.125 -0.0625 C-5.40570313 -0.25972656 -4.68640625 -0.45695312 -3.9453125 -0.66015625 C-2 -1 -2 -1 0 0 Z " fill="#5A5BC3" transform="translate(49,63)"/>
<path d="M0 0 C0 0.66 0 1.32 0 2 C0.99 2.33 1.98 2.66 3 3 C2.01 4.485 2.01 4.485 1 6 C-1.6015625 6.51171875 -1.6015625 6.51171875 -4.625 6.6875 C-6.12933594 6.78611328 -6.12933594 6.78611328 -7.6640625 6.88671875 C-8.82035156 6.94279297 -8.82035156 6.94279297 -10 7 C-7.30725018 2.12740508 -5.90493851 0 0 0 Z " fill="#CCD5F8" transform="translate(165,55)"/>
<path d="M0 0 C3.96 0 7.92 0 12 0 C12.66 1.65 13.32 3.3 14 5 C8.80790596 5.21192221 4.873261 4.5912689 0 3 C0 2.01 0 1.02 0 0 Z " fill="#5C56BD" transform="translate(80,52)"/>
<path d="M0 0 C0.66 0.33 1.32 0.66 2 1 C2 4.96 2 8.92 2 13 C-0.97 12.505 -0.97 12.505 -4 12 C-4.66 10.02 -5.32 8.04 -6 6 C-5.34 6 -4.68 6 -4 6 C-4 6.99 -4 7.98 -4 9 C-3.34 9 -2.68 9 -2 9 C-1.855625 7.700625 -1.71125 6.40125 -1.5625 5.0625 C-1.125 1.125 -1.125 1.125 0 0 Z " fill="#CFCBE8" transform="translate(220,140)"/>
<path d="M0 0 C0.66 0.33 1.32 0.66 2 1 C1.67 2.32 1.34 3.64 1 5 C-5.83658857 6.78101897 -12.01611283 7.25249204 -19.0625 7.125 C-20.02349609 7.11597656 -20.98449219 7.10695313 -21.97460938 7.09765625 C-24.31667805 7.07435208 -26.65819792 7.04164058 -29 7 C-29 6.67 -29 6.34 -29 6 C-28.42032471 5.98541748 -27.84064941 5.97083496 -27.2434082 5.95581055 C-24.59912447 5.88101472 -21.95605998 5.78446102 -19.3125 5.6875 C-17.94448242 5.65366211 -17.94448242 5.65366211 -16.54882812 5.61914062 C-11.55450835 5.41936783 -8.09443352 5.1551223 -4 2 C-1.8125 0.75 -1.8125 0.75 0 0 Z " fill="#756DCC" transform="translate(161,62)"/>
<path d="M0 0 C1.32 0 2.64 0 4 0 C4.98120464 3.05263664 4.98120464 4.94736336 4 8 C4.99 8.33 5.98 8.66 7 9 C6.67 9.66 6.34 10.32 6 11 C4.35 11 2.7 11 1 11 C1 8.69 1 6.38 1 4 C0.34 4 -0.32 4 -1 4 C-0.67 2.68 -0.34 1.36 0 0 Z " fill="#DBD5F3" transform="translate(129,142)"/>
<path d="M0 0 C0.66 0 1.32 0 2 0 C2.19511725 2.74965228 2.38136433 5.49942132 2.5625 8.25 C2.61857422 9.02730469 2.67464844 9.80460937 2.73242188 10.60546875 C2.78076172 11.35957031 2.82910156 12.11367187 2.87890625 12.890625 C2.9260376 13.58188477 2.97316895 14.27314453 3.02172852 14.98535156 C2.99853136 17.13617072 2.5995764 18.94084871 2 21 C1.34 21 0.68 21 0 21 C-1.33257403 6.21867882 -1.33257403 6.21867882 0 0 Z " fill="#D7C2FB" transform="translate(9,103)"/>
<path d="M0 0 C0.99 0 1.98 0 3 0 C2.67 3.96 2.34 7.92 2 12 C0.02 12 -1.96 12 -4 12 C-3.01 11.67 -2.02 11.34 -1 11 C-1 9.35 -1 7.7 -1 6 C-1.66 6 -2.32 6 -3 6 C-3 5.34 -3 4.68 -3 4 C-2.34 4 -1.68 4 -1 4 C-0.67 2.68 -0.34 1.36 0 0 Z " fill="#EDEAF5" transform="translate(62,140)"/>
<path d="M0 0 C0.33 0 0.66 0 1 0 C1.05392397 2.77109307 1.09363455 5.54113818 1.125 8.3125 C1.15013672 9.49102539 1.15013672 9.49102539 1.17578125 10.69335938 C1.18222656 11.45068359 1.18867188 12.20800781 1.1953125 12.98828125 C1.21102295 14.03302612 1.21102295 14.03302612 1.22705078 15.09887695 C1 17 1 17 -1 20 C-2.05409871 14.07069473 -2.5881975 8.01157788 -2 2 C-1.34 1.34 -0.68 0.68 0 0 Z " fill="#B4A3E1" transform="translate(29,117)"/>
<path d="M0 0 C18.04100228 0.59453303 18.04100228 0.59453303 25 4 C22.40500456 5.29749772 20.87273325 4.94158888 17.9921875 4.66015625 C16.51298828 4.5199707 16.51298828 4.5199707 15.00390625 4.37695312 C13.45509766 4.22129883 13.45509766 4.22129883 11.875 4.0625 C10.83472656 3.96259766 9.79445313 3.86269531 8.72265625 3.75976562 C6.14788337 3.51173704 3.57376332 3.25826144 1 3 C0.67 2.01 0.34 1.02 0 0 Z " fill="#81C1F8" transform="translate(47,59)"/>
<path d="M0 0 C0.99 0 1.98 0 3 0 C3.33 1.65 3.66 3.3 4 5 C4.33 3.35 4.66 1.7 5 0 C5.33 0 5.66 0 6 0 C6 1.65 6 3.3 6 5 C6.66 5.33 7.32 5.66 8 6 C7.01 6.495 7.01 6.495 6 7 C6.66 7.66 7.32 8.32 8 9 C5.66705225 9.04241723 3.33297433 9.04092937 1 9 C0 8 0 8 -0.09765625 6.15234375 C-0.06510417 4.1015625 -0.03255208 2.05078125 0 0 Z " fill="#E1DCF2" transform="translate(223,144)"/>
<path d="M0 0 C1.65 0 3.3 0 5 0 C2.525 4.455 2.525 4.455 0 9 C-1.32 8.67 -2.64 8.34 -4 8 C-4 6.02 -4 4.04 -4 2 C-3.01 2.495 -3.01 2.495 -2 3 C-1.34 2.01 -0.68 1.02 0 0 Z " fill="#DDDAEE" transform="translate(99,144)"/>
<path d="M0 0 C0.8971875 0.5259375 0.8971875 0.5259375 1.8125 1.0625 C0.8225 2.5475 0.8225 2.5475 -0.1875 4.0625 C0.8025 4.7225 1.7925 5.3825 2.8125 6.0625 C-0.8175 6.3925 -4.4475 6.7225 -8.1875 7.0625 C-8.8475 6.0725 -9.5075 5.0825 -10.1875 4.0625 C-7.8775 3.4025 -5.5675 2.7425 -3.1875 2.0625 C-3.8475 1.4025 -4.5075 0.7425 -5.1875 0.0625 C-2.1875 -0.9375 -2.1875 -0.9375 0 0 Z " fill="#BABAEE" transform="translate(156.1875,56.9375)"/>
<path d="M0 0 C0.66 0.33 1.32 0.66 2 1 C2.625 3.5625 2.625 3.5625 3 6 C3.33 6 3.66 6 4 6 C4 7.98 4 9.96 4 12 C2.35 12.33 0.7 12.66 -1 13 C-1.02686553 11.02090602 -1.04633375 9.04171029 -1.0625 7.0625 C-1.07410156 5.96035156 -1.08570312 4.85820312 -1.09765625 3.72265625 C-1 1 -1 1 0 0 Z " fill="#DDDAF1" transform="translate(116,140)"/>
<path d="M0 0 C2.24956302 2.24956302 3.00510965 4.06323263 4.1875 7 C4.55230469 7.886875 4.91710938 8.77375 5.29296875 9.6875 C6 12 6 12 5 14 C3.35 14 1.7 14 0 14 C0 9.38 0 4.76 0 0 Z " fill="#D5C2EE" transform="translate(29,134)"/>
<path d="M0 0 C0.66 0 1.32 0 2 0 C2 0.99 2 1.98 2 3 C2.99 3.33 3.98 3.66 5 4 C4.67 5.32 4.34 6.64 4 8 C1.69 8 -0.62 8 -3 8 C-3 4.40142046 -2.04169485 2.90548882 0 0 Z " fill="#F5F3FA" transform="translate(179,124)"/>
<path d="M0 0 C4.51617599 -0.07654536 8.59085217 -0.10228696 13 1 C13 1.66 13 2.32 13 3 C13.66 3.33 14.32 3.66 15 4 C11.02840314 5.08056059 8.57446843 4.85815614 4.6875 3.5625 C3.36298828 3.13130859 3.36298828 3.13130859 2.01171875 2.69140625 C1.34785156 2.46324219 0.68398437 2.23507813 0 2 C0 1.34 0 0.68 0 0 Z " fill="#ACC9F8" transform="translate(99,53)"/>
<path d="M0 0 C0.66 0 1.32 0 2 0 C2.25 2.75 2.25 2.75 2 6 C0 8.375 0 8.375 -2 10 C-2.66 9.67 -3.32 9.34 -4 9 C-4.625 5.9375 -4.625 5.9375 -5 3 C-3.35 2.67 -1.7 2.34 0 2 C0 1.34 0 0.68 0 0 Z " fill="#F6F0FC" transform="translate(22,123)"/>
<path d="M0 0 C1.32 0.66 2.64 1.32 4 2 C3.52949219 2.43570313 3.05898438 2.87140625 2.57421875 3.3203125 C-1.2151214 6.94489873 -3.95670553 10.07205451 -6 15 C-6.33 15 -6.66 15 -7 15 C-7.50632171 9.68362203 -6.24708376 7.17482197 -3 3 C-1.25 1.125 -1.25 1.125 0 0 Z " fill="#A3A9EE" transform="translate(36,91)"/>
<path d="M0 0 C2.97 0.495 2.97 0.495 6 1 C6 2.65 6 4.3 6 6 C4.35 6.33 2.7 6.66 1 7 C-0.0625 5.1875 -0.0625 5.1875 -1 3 C-0.67 2.01 -0.34 1.02 0 0 Z " fill="#CDCDEF" transform="translate(35,98)"/>
<path d="M0 0 C4.3177458 0.50797009 8.03302114 1.19682779 12 3 C8.32607769 6.12963752 5.52717073 7.18294334 0.6796875 6.83203125 C-1.55339451 6.59052238 -3.77618921 6.31491874 -6 6 C-6 5.67 -6 5.34 -6 5 C-2.37 5 1.26 5 5 5 C4.34 4.01 3.68 3.02 3 2 C2.01 2 1.02 2 0 2 C0 1.34 0 0.68 0 0 Z " fill="#A7B6EE" transform="translate(94,75)"/>
<path d="M0 0 C0.66 0.99 1.32 1.98 2 3 C0.6875 4.5 0.6875 4.5 -1 6 C-1.99 6 -2.98 6 -4 6 C-4 7.65 -4 9.3 -4 11 C-4.99 10.67 -5.98 10.34 -7 10 C-6.39053254 4.5147929 -6.39053254 4.5147929 -4.625 2.1875 C-3 1 -3 1 0 0 Z " fill="#6BC1F7" transform="translate(30,62)"/>
<path d="M0 0 C1.41377341 2.63904371 2.37240135 5.07120629 3 8 C3.99 8 4.98 8 6 8 C5.6875 10.375 5.6875 10.375 5 13 C4.01 13.66 3.02 14.32 2 15 C1.4465236 12.92446352 1 11.15634036 1 9 C0.649375 8.21625 0.29875 7.4325 -0.0625 6.625 C-1.06624354 3.81451808 -1.01424372 2.73845804 0 0 Z " fill="#92BAF3" transform="translate(180,35)"/>
<path d="M0 0 C4.95 0 9.9 0 15 0 C15 0.33 15 0.66 15 1 C11.7 1.33 8.4 1.66 5 2 C8.3 2.99 11.6 3.98 15 5 C15 5.33 15 5.66 15 6 C12.03 6 9.06 6 6 6 C6 5.34 6 4.68 6 4 C4.02 3.34 2.04 2.68 0 2 C0 1.34 0 0.68 0 0 Z " fill="#706EC6" transform="translate(91,68)"/>
<path d="M0 0 C2.31 0.33 4.62 0.66 7 1 C7 1.66 7 2.32 7 3 C7.66 3 8.32 3 9 3 C9 3.99 9 4.98 9 6 C6.69 6 4.38 6 2 6 C0 2.25 0 2.25 0 0 Z " fill="#84D8FB" transform="translate(84,58)"/>
<path d="M0 0 C0.99 0 1.98 0 3 0 C2.39301257 4.12751449 0.96189209 7.3321148 -1 11 C-1.99 11 -2.98 11 -4 11 C-3.39301257 6.87248551 -1.96189209 3.6678852 0 0 Z " fill="#8BB4EF" transform="translate(16,77)"/>
<path d="M0 0 C0.33 0 0.66 0 1 0 C1.22786458 1.953125 1.45572917 3.90625 1.68359375 5.859375 C1.94597953 7.99375288 1.94597953 7.99375288 2.59375 9.96875 C3.10050959 12.50254797 2.68650101 14.25399595 2.0625 16.75 C1.86785156 17.54921875 1.67320312 18.3484375 1.47265625 19.171875 C1.31667969 19.77515625 1.16070312 20.3784375 1 21 C-0.32 21.33 -1.64 21.66 -3 22 C-3 21.34 -3 20.68 -3 20 C-2.01 20 -1.02 20 0 20 C-0.185625 18.9275 -0.37125 17.855 -0.5625 16.75 C-1.29097737 11.1245359 -0.60795738 5.61191429 0 0 Z " fill="#8CB7E6" transform="translate(169,26)"/>
<path d="M0 0 C1.58409994 0.11487748 3.16728963 0.24234508 4.75 0.375 C6.07257813 0.47941406 6.07257813 0.47941406 7.421875 0.5859375 C9.99066382 0.99850055 11.75841015 1.71160957 14 3 C13 4 13 4 9.25 4.25 C5.41614024 4.21552284 3.07808861 3.40475672 0 1 C0 0.67 0 0.34 0 0 Z " fill="#A4C1F5" transform="translate(80,72)"/>
<path d="M0 0 C0.98291016 0.04833984 1.96582031 0.09667969 2.97851562 0.14648438 C4.51475586 0.2305957 4.51475586 0.2305957 6.08203125 0.31640625 C7.11779297 0.36861328 8.15355469 0.42082031 9.22070312 0.47460938 C11.77895174 0.60429018 14.33681063 0.73925603 16.89453125 0.87890625 C16.89453125 1.20890625 16.89453125 1.53890625 16.89453125 1.87890625 C16.25427002 1.9039624 15.61400879 1.92901855 14.9543457 1.95483398 C12.03839399 2.07126085 9.12272835 2.19377492 6.20703125 2.31640625 C5.19962891 2.35572266 4.19222656 2.39503906 3.15429688 2.43554688 C2.17783203 2.47744141 1.20136719 2.51933594 0.1953125 2.5625 C-0.70018311 2.59915771 -1.59567871 2.63581543 -2.51831055 2.67358398 C-5.11324963 2.87952376 -7.56601559 3.31658447 -10.10546875 3.87890625 C-9.44546875 3.54890625 -8.78546875 3.21890625 -8.10546875 2.87890625 C-8.10546875 2.21890625 -8.10546875 1.55890625 -8.10546875 0.87890625 C-5.02085369 -0.14929877 -3.20861636 -0.16692224 0 0 Z " fill="#A0B4EA" transform="translate(129.10546875,57.12109375)"/>
<path d="M0 0 C2.0625 0.4375 2.0625 0.4375 4 1 C4.33 2.32 4.66 3.64 5 5 C3.125 6.0625 3.125 6.0625 1 7 C0.34 6.67 -0.32 6.34 -1 6 C-1.042721 4.33388095 -1.04063832 2.66617115 -1 1 C-0.67 0.67 -0.34 0.34 0 0 Z " fill="#F1ECF9" transform="translate(39,161)"/>
<path d="M0 0 C0 1.65 0 3.3 0 5 C-1.32 5.33 -2.64 5.66 -4 6 C-4.33 5.01 -4.66 4.02 -5 3 C-5.66 3 -6.32 3 -7 3 C-7 2.34 -7 1.68 -7 1 C-4.53721199 -0.231394 -2.7204945 -0.07159196 0 0 Z " fill="#8FC8F3" transform="translate(129,49)"/>
<path d="M0 0 C1.80411967 2.75924185 2.0127245 3.88972103 1.625 7.25 C1.41875 8.1575 1.2125 9.065 1 10 C-1.97 9.505 -1.97 9.505 -5 9 C-4 7 -4 7 -1 6 C-1.99 5.67 -2.98 5.34 -4 5 C-3.01 5 -2.02 5 -1 5 C-0.67 3.35 -0.34 1.7 0 0 Z " fill="#F7F6FE" transform="translate(150,146)"/>
<path d="M0 0 C5.28 0 10.56 0 16 0 C16 0.33 16 0.66 16 1 C11.71 1 7.42 1 3 1 C2.67 3.64 2.34 6.28 2 9 C0.4375 7.3125 0.4375 7.3125 -1 5 C-0.67 3.35 -0.34 1.7 0 0 Z " fill="#D3CBF6" transform="translate(231,101)"/>
<path d="M0 0 C0.99 0.33 1.98 0.66 3 1 C3 2.98 3 4.96 3 7 C1.35 6.67 -0.3 6.34 -2 6 C-2 4.35 -2 2.7 -2 1 C-1.34 0.67 -0.68 0.34 0 0 Z " fill="#9ADEFA" transform="translate(172,4)"/>
<path d="M0 0 C2.33944736 0.28730055 4.6739143 0.61936779 7 1 C6.67 1.99 6.34 2.98 6 4 C5.34 4 4.68 4 4 4 C4 3.34 4 2.68 4 2 C3.01 2 2.02 2 1 2 C1 3.32 1 4.64 1 6 C0.01 6 -0.98 6 -2 6 C-1.125 1.125 -1.125 1.125 0 0 Z " fill="#E3DBF7" transform="translate(202,141)"/>
<path d="M0 0 C0 1.98 0 3.96 0 6 C-1.98 6.33 -3.96 6.66 -6 7 C-5.6875 4.625 -5.6875 4.625 -5 2 C-2 0 -2 0 0 0 Z " fill="#C3E1FC" transform="translate(179,48)"/>
<path d="M0 0 C0.66 0.33 1.32 0.66 2 1 C1.67 1.99 1.34 2.98 1 4 C1.99 4 2.98 4 4 4 C4.33 3.01 4.66 2.02 5 1 C5 2.65 5 4.3 5 6 C5.66 6.33 6.32 6.66 7 7 C4.66705225 7.04241723 2.33297433 7.04092937 0 7 C-1 6 -1 6 -1.125 3.5 C-1 1 -1 1 0 0 Z " fill="#D6D3E6" transform="translate(234,146)"/>
<path d="M0 0 C1.21236328 0.01353516 1.21236328 0.01353516 2.44921875 0.02734375 C3.37154297 0.04474609 3.37154297 0.04474609 4.3125 0.0625 C1.89119669 2.48380331 0.51138623 2.59090504 -2.8125 3.1875 C-4.17761719 3.43886719 -4.17761719 3.43886719 -5.5703125 3.6953125 C-6.26898438 3.81648438 -6.96765625 3.93765625 -7.6875 4.0625 C-7.6875 3.0725 -7.6875 2.0825 -7.6875 1.0625 C-4.80538698 0.10179566 -2.98899956 -0.04331883 0 0 Z " fill="#CFDAFD" transform="translate(150.6875,57.9375)"/>
<path d="M0 0 C0.66 1.32 1.32 2.64 2 4 C-1.07999946 7.67230705 -3.2482602 8.56802365 -8 9 C-3.25 4.125 -3.25 4.125 -1 3 C-0.67 2.01 -0.34 1.02 0 0 Z " fill="#91AAEB" transform="translate(163,43)"/>
<path d="M0 0 C0.99 0 1.98 0 3 0 C3 0.66 3 1.32 3 2 C2.34 2 1.68 2 1 2 C1.33 3.65 1.66 5.3 2 7 C0.68 7.33 -0.64 7.66 -2 8 C-2.6875 6.25 -2.6875 6.25 -3 4 C-1.75 1.75 -1.75 1.75 0 0 Z " fill="#F7F4FC" transform="translate(104,144)"/>
<path d="M0 0 C2.9375 0.75 2.9375 0.75 6 2 C6.33 3.32 6.66 4.64 7 6 C3.04 5.67 -0.92 5.34 -5 5 C-5 4.67 -5 4.34 -5 4 C-3.35 4 -1.7 4 0 4 C0 2.68 0 1.36 0 0 Z " fill="#C7DCFD" transform="translate(93,75)"/>
<path d="M0 0 C1.32 0.66 2.64 1.32 4 2 C3.67 2.99 3.34 3.98 3 5 C3.99 5 4.98 5 6 5 C6 5.66 6 6.32 6 7 C4.02 7 2.04 7 0 7 C-0.38133299 5.0085944 -0.71325582 3.00720923 -1 1 C-0.67 0.67 -0.34 0.34 0 0 Z " fill="#66D5FA" transform="translate(35,56)"/>
<path d="M0 0 C0.99 0.33 1.98 0.66 3 1 C3.33 3.31 3.66 5.62 4 8 C3.01 8.33 2.02 8.66 1 9 C-1.125 2.25 -1.125 2.25 0 0 Z " fill="#F3F1FA" transform="translate(257,145)"/>
<path d="M0 0 C3.63 0 7.26 0 11 0 C10.67 0.99 10.34 1.98 10 3 C8.5199159 2.88637738 7.04089926 2.75877092 5.5625 2.625 C4.73878906 2.55539063 3.91507812 2.48578125 3.06640625 2.4140625 C2.38449219 2.27742188 1.70257813 2.14078125 1 2 C0.67 1.34 0.34 0.68 0 0 Z " fill="#C7D1FA" transform="translate(95,69)"/>
<path d="M0 0 C1.32 0 2.64 0 4 0 C4 0.66 4 1.32 4 2 C4.99 2.33 5.98 2.66 7 3 C6.67 3.66 6.34 4.32 6 5 C3.36 4.67 0.72 4.34 -2 4 C-1.34 3.67 -0.68 3.34 0 3 C0 2.01 0 1.02 0 0 Z " fill="#D8E9FD" transform="translate(161,55)"/>
<path d="M0 0 C1.98 0.495 1.98 0.495 4 1 C3.67 2.65 3.34 4.3 3 6 C1.68 5.67 0.36 5.34 -1 5 C-0.67 3.35 -0.34 1.7 0 0 Z " fill="#92D0EF" transform="translate(153,6)"/>
<path d="M0 0 C0.368 5.52 0.368 5.52 -1.4375 7.875 C-3 9 -3 9 -4 9 C-3.4140625 2.84765625 -3.4140625 2.84765625 -3 1 C-1 0 -1 0 0 0 Z " fill="#C4BDEC" transform="translate(32,109)"/>
<path d="M0 0 C4.29 0 8.58 0 13 0 C13 0.99 13 1.98 13 3 C11.02 3 9.04 3 7 3 C7 2.34 7 1.68 7 1 C4.69 1 2.38 1 0 1 C0 0.67 0 0.34 0 0 Z " fill="#BBCCF6" transform="translate(119,68)"/>
<path d="M0 0 C0.33 0.99 0.66 1.98 1 3 C3.01508358 3.73323796 3.01508358 3.73323796 5 4 C4 6 4 6 2 7 C1.34444881 9.52733235 1.34444881 9.52733235 1 12 C0.01 11.67 -0.98 11.34 -2 11 C-1.34 11 -0.68 11 0 11 C0 7.37 0 3.74 0 0 Z " fill="#C5C0E0" transform="translate(92,141)"/>
<path d="M0 0 C0 0.99 0 1.98 0 3 C-0.66 3 -1.32 3 -2 3 C-1.67 4.32 -1.34 5.64 -1 7 C-1.99 7 -2.98 7 -4 7 C-4.66 5.35 -5.32 3.7 -6 2 C-2.25 0 -2.25 0 0 0 Z " fill="#D8D2EE" transform="translate(28,142)"/>
<path d="M0 0 C0.66 0 1.32 0 2 0 C2 1.98 2 3.96 2 6 C0.35 6.66 -1.3 7.32 -3 8 C-3 7.34 -3 6.68 -3 6 C-3.66 6 -4.32 6 -5 6 C-4.67 5.34 -4.34 4.68 -4 4 C-3.34 4.33 -2.68 4.66 -2 5 C-1.67 4.01 -1.34 3.02 -1 2 C-1 2.99 -1 3.98 -1 5 C-0.34 5 0.32 5 1 5 C0.67 3.35 0.34 1.7 0 0 Z " fill="#CFCCE2" transform="translate(185,145)"/>
<path d="M0 0 C1.98 0.495 1.98 0.495 4 1 C4.33 2.98 4.66 4.96 5 7 C2.53199953 5.84826645 0.95216435 4.95216435 -1 3 C-0.67 2.01 -0.34 1.02 0 0 Z " fill="#EFE6F6" transform="translate(51,146)"/>
<path d="M0 0 C2.31 0 4.62 0 7 0 C7.33 2.31 7.66 4.62 8 7 C3.125 3.25 3.125 3.25 2 1 C1.34 0.67 0.68 0.34 0 0 Z " fill="#DDD9F0" transform="translate(243,144)"/>
<path d="M0 0 C0.33 0 0.66 0 1 0 C1 4.62 1 9.24 1 14 C0.67 14 0.34 14 0 14 C-0.39180108 12.42074025 -0.76280736 10.83631206 -1.125 9.25 C-1.33382813 8.36828125 -1.54265625 7.4865625 -1.7578125 6.578125 C-2.03088304 3.67124507 -1.53508028 2.43338652 0 0 Z " fill="#C7BDE0" transform="translate(24,115)"/>
<path d="M0 0 C0.66 0 1.32 0 2 0 C2 2.97 2 5.94 2 9 C1.34 9 0.68 9 0 9 C-0.33 9.99 -0.66 10.98 -1 12 C-0.67 8.04 -0.34 4.08 0 0 Z " fill="#BEB8FE" transform="translate(9,103)"/>
<path d="M0 0 C1.32 0 2.64 0 4 0 C4 1.32 4 2.64 4 4 C3.34 4 2.68 4 2 4 C2 4.66 2 5.32 2 6 C1.01 6 0.02 6 -1 6 C-0.67 4.02 -0.34 2.04 0 0 Z " fill="#F0EDFA" transform="translate(136,85)"/>
<path d="M0 0 C2.64 0.33 5.28 0.66 8 1 C8 1.66 8 2.32 8 3 C5.03 3 2.06 3 -1 3 C-0.67 2.01 -0.34 1.02 0 0 Z " fill="#DCD7F6" transform="translate(120,84)"/>
<path d="M0 0 C0.99 0.33 1.98 0.66 3 1 C3 2.32 3 3.64 3 5 C3.99 5.33 4.98 5.66 6 6 C3.69 5.67 1.38 5.34 -1 5 C-0.67 3.35 -0.34 1.7 0 0 Z " fill="#85B9EE" transform="translate(45,47)"/>
<path d="M0 0 C0.33 0.66 0.66 1.32 1 2 C-2.3 2.66 -5.6 3.32 -9 4 C-8.67 3.01 -8.34 2.02 -8 1 C-5.29120665 -0.35439668 -2.99066732 -0.06501451 0 0 Z " fill="#788ADB" transform="translate(57,47)"/>
<path d="M0 0 C0.66 0 1.32 0 2 0 C2.91297308 4.97063121 2.91297308 9.02936879 2 14 C1.67 14 1.34 14 1 14 C0.04738513 9.23692563 -0.08333357 4.8333472 0 0 Z " fill="#9BC5EE" transform="translate(185,29)"/>
<path d="M0 0 C-1.28497537 2.56995074 -2.49912373 2.90434463 -5.0625 4.125 C-5.79597656 4.47820312 -6.52945312 4.83140625 -7.28515625 5.1953125 C-7.85105469 5.46085937 -8.41695312 5.72640625 -9 6 C-9 4.68 -9 3.36 -9 2 C-5.86501708 0.14223235 -3.62528568 -0.20140476 0 0 Z " fill="#69A6E9" transform="translate(35,66)"/>
<path d="M0 0 C0.99 0.33 1.98 0.66 3 1 C1.87548273 3.9719385 0.77706209 6.33440687 -1 9 C-1.99 9 -2.98 9 -4 9 C-2.80100302 5.9168649 -1.52299523 2.93720508 0 0 Z " fill="#C1CEED" transform="translate(186,57)"/>
<path d="M0 0 C3.68754757 0.49831724 5.60490662 1.10067643 8 4 C5.69 4.33 3.38 4.66 1 5 C0.67 3.35 0.34 1.7 0 0 Z " fill="#695EC3" transform="translate(161,61)"/>
<path d="M0 0 C6.625 -0.125 6.625 -0.125 10 1 C10 1.66 10 2.32 10 3 C6.37 2.67 2.74 2.34 -1 2 C-0.67 1.34 -0.34 0.68 0 0 Z " fill="#94C4FB" transform="translate(65,45)"/>
<path d="M0 0 C2 1.25 2 1.25 4 3 C4 4.32 4 5.64 4 7 C2.68 6.67 1.36 6.34 0 6 C0 4.02 0 2.04 0 0 Z " fill="#ECEAF4" transform="translate(95,146)"/>
<path d="M0 0 C2.31 0 4.62 0 7 0 C7.33 1.65 7.66 3.3 8 5 C7.34 5 6.68 5 6 5 C6 4.01 6 3.02 6 2 C4.02 2.99 4.02 2.99 2 4 C2 3.01 2 2.02 2 1 C1.34 0.67 0.68 0.34 0 0 Z " fill="#E6E1F4" transform="translate(210,144)"/>
<path d="M0 0 C2.31 0 4.62 0 7 0 C7 1.98 7 3.96 7 6 C6.34 5.01 5.68 4.02 5 3 C5.33 2.34 5.66 1.68 6 1 C5.34 1 4.68 1 4 1 C4 1.66 4 2.32 4 3 C3.01 3.33 2.02 3.66 1 4 C0.67 2.68 0.34 1.36 0 0 Z " fill="#E5E0F1" transform="translate(66,144)"/>
<path d="M0 0 C1.98 0.66 3.96 1.32 6 2 C3.33440687 3.77706209 0.9719385 4.87548273 -2 6 C-2 4.68 -2 3.36 -2 2 C-1.34 2 -0.68 2 0 2 C0 1.34 0 0.68 0 0 Z " fill="#91AEF1" transform="translate(48,82)"/>
<path d="M0 0 C0.33 0.99 0.66 1.98 1 3 C-0.65 4.65 -2.3 6.3 -4 8 C-4.66 7.67 -5.32 7.34 -6 7 C-4.02 4.69 -2.04 2.38 0 0 Z " fill="#9CBAEB" transform="translate(27,79)"/>
<path d="M0 0 C4.7539867 1.14751403 9.37892907 2.38262517 14 4 C10.62700256 5.15006091 8.65146785 4.85199953 5.3125 3.6875 C4.52488281 3.42324219 3.73726563 3.15898438 2.92578125 2.88671875 C1 2 1 2 0 0 Z " fill="#87C0F9" transform="translate(81,55)"/>
<path d="M0 0 C0 0.33 0 0.66 0 1 C-1.258125 1.185625 -2.51625 1.37125 -3.8125 1.5625 C-4.87404297 1.71912109 -4.87404297 1.71912109 -5.95703125 1.87890625 C-8 2 -8 2 -11 1 C-11 0.34 -11 -0.32 -11 -1 C-6.74938644 -2.41687119 -4.28148375 -1.19320039 0 0 Z " fill="#9BC1F1" transform="translate(104,52)"/>
<path d="M0 0 C0.185625 0.9590625 0.185625 0.9590625 0.375 1.9375 C0.684375 2.9584375 0.684375 2.9584375 1 4 C1.66 4.33 2.32 4.66 3 5 C1.02 5.99 -0.96 6.98 -3 8 C-2.67 6.35 -2.34 4.7 -2 3 C-1.34 3 -0.68 3 0 3 C0 2.01 0 1.02 0 0 Z " fill="#D5CCEF" transform="translate(80,147)"/>
<path d="M0 0 C1.32 0 2.64 0 4 0 C4.33 1.98 4.66 3.96 5 6 C4.34 6 3.68 6 3 6 C3 5.01 3 4.02 3 3 C1.68 2.67 0.36 2.34 -1 2 C-0.67 1.34 -0.34 0.68 0 0 Z " fill="#EFEEF9" transform="translate(181,144)"/>
<path d="M0 0 C0.6875 1.75 0.6875 1.75 1 4 C-0.7573799 7.07541482 -1.57945994 7.85981998 -5 9 C-5 8.01 -5 7.02 -5 6 C-4.34 6 -3.68 6 -3 6 C-2.690625 5.195625 -2.38125 4.39125 -2.0625 3.5625 C-1 1 -1 1 0 0 Z " fill="#C8C1EF" transform="translate(178,123)"/>
<path d="M0 0 C0.99 0 1.98 0 3 0 C3 0.66 3 1.32 3 2 C3.66 2 4.32 2 5 2 C5 2.66 5 3.32 5 4 C1.25 5.125 1.25 5.125 -1 4 C-0.67 2.68 -0.34 1.36 0 0 Z " fill="#E9E7F7" transform="translate(168,142)"/>
<path d="M0 0 C2.6855594 2.6855594 3.06049974 5.37621328 4 9 C3.01 9 2.02 9 1 9 C-0.4783226 6.04335481 -0.06032783 3.25770263 0 0 Z " fill="#CBB6EF" transform="translate(29,134)"/>
<path d="M0 0 C2.31 0 4.62 0 7 0 C7 0.66 7 1.32 7 2 C4.69 2.33 2.38 2.66 0 3 C0 2.01 0 1.02 0 0 Z " fill="#DADBFD" transform="translate(107,81)"/>
<path d="M0 0 C-0.99 0.66 -1.98 1.32 -3 2 C-2.67 2.66 -2.34 3.32 -2 4 C-4.375 4.1875 -4.375 4.1875 -7 4 C-7.66 3.01 -8.32 2.02 -9 1 C-2.25 -1.125 -2.25 -1.125 0 0 Z " fill="#9A9CDC" transform="translate(155,60)"/>
<path d="M0 0 C3.71599191 -0.20086443 4.77208445 -0.1519437 8 2 C8 2.66 8 3.32 8 4 C5.36 3.34 2.72 2.68 0 2 C0 1.34 0 0.68 0 0 Z " fill="#BAC5F2" transform="translate(106,49)"/>
<path d="M0 0 C2.475 0.495 2.475 0.495 5 1 C4.01 1.495 4.01 1.495 3 2 C3.33 2.99 3.66 3.98 4 5 C2.68 4.67 1.36 4.34 0 4 C0 2.68 0 1.36 0 0 Z " fill="#F5F3FC" transform="translate(261,144)"/>
<path d="M0 0 C1.32 1.32 2.64 2.64 4 4 C3.67 4.99 3.34 5.98 3 7 C2.01 7 1.02 7 0 7 C-0.38133299 5.0085944 -0.71325582 3.00720923 -1 1 C-0.67 0.67 -0.34 0.34 0 0 Z " fill="#F9F6FE" transform="translate(21,137)"/>
<path d="M0 0 C0.33 0.99 0.66 1.98 1 3 C2.32 3 3.64 3 5 3 C4.34 4.65 3.68 6.3 3 8 C2.67 7.01 2.34 6.02 2 5 C1.34 5 0.68 5 0 5 C0 3.35 0 1.7 0 0 Z " fill="#BCB0E3" transform="translate(16,130)"/>
<path d="M0 0 C2.31 0.33 4.62 0.66 7 1 C7 1.66 7 2.32 7 3 C7.99 3.33 8.98 3.66 10 4 C3.47692308 3.38461538 3.47692308 3.38461538 1.0625 1.4375 C0.711875 0.963125 0.36125 0.48875 0 0 Z " fill="#6067B7" transform="translate(100,75)"/>
<path d="M0 0 C0.66 0.99 1.32 1.98 2 3 C-0.475 4.485 -0.475 4.485 -3 6 C-3.99 5.34 -4.98 4.68 -6 4 C-4.02 2.68 -2.04 1.36 0 0 Z " fill="#AAC3F3" transform="translate(171,49)"/>
<path d="M0 0 C1.65 1.32 3.3 2.64 5 4 C4.67 5.65 4.34 7.3 4 9 C3.87625 8.071875 3.87625 8.071875 3.75 7.125 C3.18741541 4.81562433 3.18741541 4.81562433 0.9375 3.75 C0.298125 3.5025 -0.34125 3.255 -1 3 C-0.67 2.01 -0.34 1.02 0 0 Z " fill="#A6C0F5" transform="translate(186,49)"/>
<path d="M0 0 C2.09749995 2.35968744 2.96905704 3.54616994 3.1875 6.75 C3.0946875 7.86375 3.0946875 7.86375 3 9 C2.34 9 1.68 9 1 9 C0.45627049 5.94152152 0 3.11227195 0 0 Z " fill="#BAC5EE" transform="translate(189,24)"/>
<path d="M0 0 C2.475 0.495 2.475 0.495 5 1 C5 1.99 5 2.98 5 4 C3.35 4 1.7 4 0 4 C0 2.68 0 1.36 0 0 Z " fill="#E4E2F1" transform="translate(211,149)"/>
<path d="M0 0 C0.99 0.33 1.98 0.66 3 1 C3 2.32 3 3.64 3 5 C1.02 5 -0.96 5 -3 5 C-2.01 4.67 -1.02 4.34 0 4 C0 2.68 0 1.36 0 0 Z " fill="#F9F8FE" transform="translate(164,147)"/>
<path d="M0 0 C1.32 0.33 2.64 0.66 4 1 C4.33 2.65 4.66 4.3 5 6 C4.01 6 3.02 6 2 6 C1.34 4.02 0.68 2.04 0 0 Z " fill="#F7F5FD" transform="translate(79,145)"/>
<path d="M0 0 C1.37478516 0.01740234 1.37478516 0.01740234 2.77734375 0.03515625 C3.69644531 0.04417969 4.61554688 0.05320312 5.5625 0.0625 C6.27277344 0.07410156 6.98304688 0.08570312 7.71484375 0.09765625 C7.71484375 0.42765625 7.71484375 0.75765625 7.71484375 1.09765625 C5.07484375 1.09765625 2.43484375 1.09765625 -0.28515625 1.09765625 C-0.61515625 2.41765625 -0.94515625 3.73765625 -1.28515625 5.09765625 C-1.94515625 3.77765625 -2.60515625 2.45765625 -3.28515625 1.09765625 C-2.28515625 0.09765625 -2.28515625 0.09765625 0 0 Z " fill="#BAB1DE" transform="translate(146.28515625,99.90234375)"/>
<path d="M0 0 C0.66 0 1.32 0 2 0 C2 1.32 2 2.64 2 4 C2.66 4.33 3.32 4.66 4 5 C2.35 5.33 0.7 5.66 -1 6 C-0.67 4.02 -0.34 2.04 0 0 Z " fill="#C5CAF4" transform="translate(16,94)"/>
<path d="M0 0 C1.32 0 2.64 0 4 0 C4.33 0.99 4.66 1.98 5 3 C3.35 3.33 1.7 3.66 0 4 C0 2.68 0 1.36 0 0 Z " fill="#E2DCF5" transform="translate(173,77)"/>
<path d="M0 0 C-3.08888522 2.05925681 -3.70935927 2.2390374 -7.1875 2.125 C-9.0746875 2.063125 -9.0746875 2.063125 -11 2 C-6.80312837 -0.79791442 -4.79748656 -1.16695619 0 0 Z " fill="#ADCEFB" transform="translate(65,80)"/>
<path d="M0 0 C0.99 0.33 1.98 0.66 3 1 C2.67 3.64 2.34 6.28 2 9 C0.68 9.33 -0.64 9.66 -2 10 C-2 9.34 -2 8.68 -2 8 C-1.01 8 -0.02 8 1 8 C0.67 5.36 0.34 2.72 0 0 Z " fill="#9AB6F1" transform="translate(168,38)"/>
</svg>
